<svg xmlns="http://www.w3.org/2000/svg" viewBox="0 0 1200 125" width="1200" height="125"><path d="M0 0 C2 2 2 2 2 6 C2.8 6.1 3.6 6.2 4.4 6.4 C5.3 6.6 6.1 6.8 7 7 C7.3 7.7 7.7 8.3 8 9 C11.9 7.3 11.9 7.3 13 5 C19.4 3.7 19.4 3.7 22 5 C24.3 4.7 26.7 4.4 29 4 C29.4 4 29.4 4 31.7 4.1 C34 4 34 4 36.1 2.4 C38 1 38 1 40 1.1 C42.3 2.1 44 3.5 46 5 C48.1 5.8 48.1 5.8 50 6 C50.7 5.3 51.3 4.7 52 4 C55.3 4.4 58.3 5.1 61 7 C61.5 9.7 61.5 9.7 61.6 12.9 C61.8 16.8 61.9 19.6 64 23 C63.5 23.3 63.5 23.3 61 25 C62.3 25 63.6 25 65 25 C65.1 23.7 65.2 22.5 65.4 21.2 C65.7 17.9 66.1 16.9 68 14 C67.3 14 66.7 14 66 14 C66.3 11.1 66.8 9.3 68.5 6.9 C72.3 4.1 75.9 4.3 80.5 4.2 C81.4 4.1 82.2 4.1 83.1 4.1 C87 3.9 90.3 3.9 94 5 C94.3 4.3 94.7 3.7 95 3 C95.6 3.3 96.1 3.6 96.7 4 C99.2 5.1 101.1 5.4 103.8 5.6 C104.5 5.7 105.3 5.8 106.2 5.9 C106.8 5.9 107.4 5.9 108 6 C108.8 9.1 109 12 108.9 15.2 C109 19 109 19 111 21 C110.8 22.7 110.8 22.7 110 25 C109.9 25.5 109.9 25.5 109.1 28.2 C108.3 31 107.4 33.7 106.4 36.5 C105.1 40.3 104.5 44 104 48 C103.6 49.2 103.3 50.3 102.9 51.5 C102 55.2 101.8 58.2 102 62 C102.5 61.8 102.5 61.8 105 61 C104.7 60.1 104.5 59.2 104.2 58.3 C104.2 57.8 104.2 57.8 104 55 C104.4 54.6 104.4 54.6 106.4 52.8 C109.5 49.5 109.3 48.7 109.1 44.4 C109 43.4 109 42.5 108.9 41.5 C109 39 109 39 110.4 37.4 C110.9 36.9 111.5 36.5 112 36 C113.4 32.4 113.2 28.5 113.4 24.7 C113.7 19.2 114.3 14.9 117 10 C117.7 8.3 118.3 6.7 119 5 C129.3 3.8 129.3 3.8 134.5 4.5 C137.8 5 140.6 4.9 143.9 4.4 C149 3.9 153.7 4.3 158.8 5 C166.9 6.1 174.9 6.4 183 5 C183.3 4.3 183.7 3.7 184 3 C184.7 3 185.3 3 186 3 C186 4 186 5 186 6 C186.4 5.9 186.4 5.9 188.2 5.4 C190.9 5 192.4 5.1 195 6 C195.7 4.7 196.3 3.4 197 2 C197.7 2 198.3 2 199 2 C199.3 2.7 199.7 3.3 200 4 C204 4 207.9 4 212 4 C212.3 5 212.7 6 213 7 C213.7 6.5 214.3 5.9 215 5.4 C219.3 3.4 221.5 4.6 226 6 C226.3 5 226.7 4 227 3 C227.7 3.1 228.4 3.3 229.2 3.4 C230.1 3.6 231 3.8 232 4 C232.8 4.2 233.7 4.5 234.6 4.7 C237.4 5.1 238.6 4.5 241 3 C242 3.7 243 4.3 244 5 C244.5 4.8 244.5 4.8 247 4 C248.3 4.3 249.7 4.6 251 5 C254 5 254 5 257.5 4.3 C258.7 4.2 259.8 4.1 261 4 C262.6 5.4 262.6 5.4 264 7 C266.5 7.6 266.5 7.6 269 8 C270 8.3 271 8.7 272 9 C272.3 7.7 272.7 6.4 273 5 C274.4 4.8 275.8 4.7 277.2 4.5 C278 4.4 278.8 4.3 279.6 4.2 C284.7 3.8 288.3 4.4 293 6 C295 5.2 295 5.2 297.1 4.1 C300.8 2 300.8 2 303 2 C303.3 2.7 303.7 3.3 304 4 C304.6 4 305.3 4 305.9 4 C310 3.9 314 3.9 318.1 4.5 C321.2 4.9 323.1 4.9 326.1 4.6 C330 5 330 5 331.7 6.7 C333.3 8.9 333.3 8.9 334.7 11.1 C336 13 336 13 339 15 C339.8 17.9 339.8 17.9 340 21 C339.3 22 338.7 23 338 24 C337.4 30.3 337.4 30.3 339.5 32.9 C340 33.3 340.5 33.6 341 34 C340 34.7 339 35.3 338 36 C338.4 36.6 338.7 37.2 339.1 37.8 C340 40 340 40 339.8 42.2 C339 44 339 44 337 45 C336.5 46.9 336.5 46.9 336.1 49.3 C335.3 53 334.4 55.1 332 58 C332 59.3 332 60.6 332 62 C331.3 62 330.7 62 330 62 C330.1 62.8 330.2 63.5 330.3 64.3 C330.4 65.3 330.5 66.3 330.6 67.3 C330.7 68.3 330.9 69.3 331 70.3 C331 73 331 73 329 76 C328.6 78.3 328.6 78.3 328.3 80.9 C328.2 81.8 328.1 82.6 328.1 83.5 C328 85.9 328.4 87.7 329 90 C328.7 90.6 328.3 91.2 328 91.9 C326.6 94.8 327.3 96.9 328 100 C326.7 99.7 325.4 99.3 324 99 C324.2 100.1 324.5 101.1 324.7 102.2 C325 106 325 106 324.1 108.4 C321 110.8 317.8 111.1 314 111 C311.7 110.4 309.3 109.7 307 109 C305.3 109.3 303.7 109.6 302 110 C300.3 110.1 298.6 110.1 296.9 110.1 C296 110.1 295 110 294 110 C292.1 110 290.1 110 288.1 110 C284.1 109.9 280.4 109.9 276.5 110.6 C274 111 274 111 271 109 C264.7 110.3 264.7 110.3 262 113 C261.3 112.3 260.7 111.7 260 111 C256.6 109.3 253.8 108.3 250 109 C247.3 111.4 247.3 111.4 245 114 C244.3 114.3 243.7 114.7 243 115 C242.3 113.7 241.7 112.4 241 111 C239.4 111 237.7 111 236 111 C236 110.3 236 109.7 236 109 C235.2 109.2 234.5 109.5 233.7 109.7 C227.4 111.5 223.2 112.3 216.9 110.4 C214.2 109.8 212.5 110.8 210 112 C207.2 111.7 205.2 111.1 202.7 109.9 C199.6 108.9 197.2 109.3 194 109.8 C192 110 192 110 188.4 109.4 C184.4 108.9 181.8 109.8 178 111 C177 111 176 111 175 111 C174.7 110.3 174.3 109.7 174 109 C171 109 168.1 109 165 109 C164.7 110.3 164.3 111.6 164 113 C162.7 112.3 161.4 111.7 160 111 C159.3 112 158.7 113 158 114 C157.3 113.7 156.7 113.3 156 113 C156 112 156 111 156 110 C150.4 109.8 146.2 109.8 141 112 C138.5 111.6 138.5 111.6 136 111 C134.3 111 132.7 111 131 111 C127 111 127 111 125 109.9 C122.5 108.8 121.6 109.1 119 110 C114 111.6 109.9 110.3 105 109 C104.7 110 104.3 111 104 112 C103.3 111.6 102.6 111.3 101.9 110.9 C98.4 109.8 96.5 110.3 93 111 C90.7 111 88.3 111 86 111 C85.3 111.2 84.6 111.4 83.9 111.6 C81 112.2 78.8 111 76 110 C75.3 110.3 74.7 110.7 74 111 C70.9 111.2 68.6 111.3 65.8 109.9 C62.1 108.7 59.2 109.3 55.4 109.9 C52.7 110 51.3 109.4 49 108 C49 109.7 49 111.3 49 113 C48.7 112.8 48.7 112.8 47.4 112.1 C44.2 110.7 41.5 110.2 38 110 C35.6 111.4 35.6 111.4 34 113 C33.7 112.3 33.3 111.7 33 111 C30.4 110.6 30.4 110.6 27.2 110.4 C26.7 110.3 26.7 110.3 24 110.1 C21.7 110 19.3 110 17 110 C16.6 109.9 16.6 109.9 14.5 109.4 C12 109 12 109 10 109.5 C7.4 110.1 5.6 109.6 3 109 C2.7 109.3 2.3 109.7 2 110 C-0 109.9 -2 109.8 -4.1 109.6 C-5.2 109.5 -6.3 109.4 -7.4 109.3 C-8.3 109.2 -9.1 109.1 -10 109 C-10.3 110 -10.7 111 -11 112 C-15.8 111 -20.5 110 -25 108 C-24.7 109.3 -24.3 110.6 -24 112 C-24.7 111.7 -25.3 111.3 -26 111 C-29 110.8 -29 110.8 -32 111 C-32.7 111.7 -33.3 112.3 -34 113 C-37.3 112 -40.6 111 -44 110 C-44.3 111 -44.7 112 -45 113 C-45.7 112.6 -46.4 112.3 -47.1 111.9 C-50.8 110.8 -52.5 111.8 -56 113 C-57 112.3 -58 111.7 -59 111 C-61 110.8 -62.9 110.5 -64.9 110.4 C-68.2 109.8 -70.9 108.4 -74 107 C-74.7 107 -75.3 107 -76 107 C-78 107 -80 107 -82 107 C-82 104 -82 104 -80 101 C-80.3 98.4 -81 95.9 -81.8 93.4 C-81.8 92.6 -81.9 91.8 -82 91 C-81.8 90.8 -81.8 90.8 -80.5 89.7 C-79 88 -79 88 -79.1 86.1 C-79.2 85.4 -79.3 84.7 -79.4 83.9 C-79.6 82.6 -79.8 81.3 -80 80 C-79.3 79.3 -78.7 78.7 -78 78 C-78.7 77.7 -79.3 77.3 -80 77 C-79.7 75.3 -79.3 73.7 -79 72 C-79.7 71.7 -80.3 71.3 -81 71 C-81 70.3 -81 69.7 -81 69 C-80 68.3 -79 67.7 -78 67 C-78 65.7 -78 64.4 -78 63 C-78.3 63.2 -78.3 63.2 -80 64 C-80 65 -80 66 -80 67 C-80.7 67 -81.3 67 -82 67 C-82.1 67.7 -82.2 68.4 -82.3 69.1 C-83.3 74.7 -84.5 79.8 -86.6 85.1 C-86.7 85.7 -86.9 86.4 -87 87 C-86.7 87.5 -86.7 87.5 -85 90 C-85.2 90.3 -85.2 90.3 -85.9 91.7 C-86.9 93.9 -87.7 96 -88.4 98.2 C-89.4 101.4 -90.5 104.5 -91.9 107.5 C-92.2 108.1 -92.5 108.8 -92.8 109.5 C-94 111 -94 111 -96 111.7 C-98.6 112.1 -100.5 111.6 -103 111 C-107.7 110.1 -110.8 109.7 -115 112 C-121.2 112.4 -125.8 111.8 -131.4 108.7 C-133 107 -133 107 -133.4 104.5 C-133 102 -133 102 -131 99 C-131.6 98.1 -132.3 97.1 -132.9 96.2 C-135 93 -135 93 -136 90 C-136.7 90.7 -137.3 91.3 -138 92 C-137.7 93 -137.3 94 -137 95 C-138.7 96.7 -140.3 98.3 -142 100 C-142.4 100.4 -142.4 100.4 -144.2 102.3 C-153.3 110.8 -164.8 113 -177 113.2 C-181 113 -181 113 -182 112 C-184.3 112 -186.5 112.1 -188.8 112.2 C-191 112 -191 112 -194 110 C-194 110.7 -194 111.3 -194 112 C-194.5 111.8 -194.5 111.8 -197 111 C-197.3 110 -197.7 109 -198 108 C-201.3 107.3 -201.3 107.3 -205 107 C-205.4 107.5 -205.8 108 -206.3 108.5 C-208 110 -208 110 -211.3 110 C-212 109.9 -212 109.9 -215.2 109.6 C-220.8 108.9 -224.7 109.3 -230 111 C-231.3 110.7 -232.7 110.4 -234 110 C-235.2 110.2 -236.3 110.3 -237.5 110.5 C-240.8 111 -241.9 110.8 -245 110 C-246.5 109.9 -248.1 109.9 -249.6 109.9 C-250.5 109.9 -251.4 109.9 -252.3 109.9 C-253.2 109.9 -254.1 109.9 -255 109.9 C-255.9 109.9 -256.8 109.9 -257.7 109.9 C-258.2 109.9 -258.2 109.9 -260.4 109.9 C-261.2 109.9 -262 109.9 -262.8 109.9 C-265 110 -265 110 -267.1 110.5 C-269.7 111.2 -271.3 110.5 -273.8 109.6 C-274.1 109.4 -274.1 109.4 -276.2 108.7 C-276.8 108.5 -277.4 108.2 -278 108 C-278.7 109.3 -279.3 110.6 -280 112 C-281 111 -282 110 -283 109 C-282.3 108.8 -282.3 108.8 -279 108 C-279.7 107 -280.3 106 -281 105 C-280.7 102.7 -280.4 100.3 -280 98 C-279.9 95 -279.9 92 -280 89 C-279.7 88.8 -279.7 88.8 -278 88 C-277.2 85.8 -277.2 85.8 -276.5 83 C-276.2 82 -276 81 -275.7 80 C-274.9 76.6 -274.3 73.2 -273.7 69.8 C-273 68 -273 68 -271 67.1 C-270.3 66.7 -269.7 66.4 -269 66 C-268.5 63.7 -268.5 63.7 -268.4 61 C-268.2 56.2 -268.2 56.2 -266 54 C-265.2 51.2 -264.5 48.4 -263.9 45.6 C-263 42.9 -262 42 -260 40 C-260.1 39.5 -260.1 39.5 -260.5 37.2 C-261.1 33.2 -260 31.4 -258 28 C-257.3 28 -256.7 28 -256 28 C-256.7 26.7 -257.3 25.4 -258 24 C-257.2 23.3 -256.4 22.6 -255.5 21.8 C-253 19 -253 19 -253.1 16.6 C-252.9 12.7 -250.6 11.2 -247.8 8.6 C-247.2 8.1 -246.6 7.5 -246 7 C-245.3 6.4 -244.7 5.8 -244 5.1 C-241.1 3.5 -238.3 3.2 -235 3 C-234.8 3.2 -234.8 3.2 -234 4 C-226.7 4.2 -226.7 4.2 -223 3 C-222.3 3.7 -221.7 4.3 -221 5 C-218.1 5.2 -218.1 5.2 -214.6 5.2 C-213.4 5.2 -212.3 5.2 -211.1 5.2 C-208 5 -208 5 -205 4 C-204.7 4.3 -204.7 4.3 -203 6 C-201.4 6.7 -199.7 7.4 -198 8 C-198 12.3 -198 16.7 -198 21 C-197.3 21.2 -197.3 21.2 -194 22 C-194 21.3 -194 20.6 -193.9 19.9 C-192.7 16.1 -190.7 14.8 -187.7 12.4 C-186 11 -186 11 -184 8 C-181.6 6.9 -181.6 6.9 -178.7 5.9 C-177.7 5.5 -176.8 5.2 -175.8 4.9 C-173.2 4.1 -170.7 3.5 -168 3 C-166.3 2.4 -164.6 1.7 -163 1 C-162.8 1.3 -162.8 1.3 -162 3 C-162.3 3.7 -162.7 4.3 -163 5 C-162 4.7 -161 4.3 -160 4 C-156.7 3.6 -153.4 3.5 -150.1 3.3 C-149.2 3.3 -148.3 3.2 -147.4 3.1 C-142.7 2.9 -139.3 2.9 -135 5 C-133.7 5 -132.4 5 -131 5 C-130.7 5.7 -130.3 6.3 -130 7 C-129.3 6.9 -128.6 6.7 -127.8 6.6 C-122.4 5.5 -117.5 4.9 -112 5 C-111.3 4.7 -110.7 4.3 -110 4 C-109 4.3 -108 4.7 -107 5 C-106 4.7 -105 4.3 -104 4 C-103 4.7 -102 5.3 -101 6 C-97.3 6.2 -94.5 6.2 -91 5 C-80.9 3.7 -72 4.1 -62 6 C-62 5.3 -62 4.7 -62 4 C-61.6 4.1 -61.6 4.1 -59.6 4.6 C-58.7 4.7 -57.9 4.9 -57 5 C-56.7 4.7 -56.3 4.3 -56 4 C-53.7 3.9 -51.3 3.9 -49 3.9 C-47.7 3.9 -46.4 3.9 -45.1 3.9 C-42 4 -42 4 -41 5 C-39.7 5.2 -38.3 5.4 -36.9 5.6 C-35.6 5.7 -34.3 5.9 -33 6 C-33 5.3 -33 4.7 -33 4 C-28.5 2.7 -28.5 2.7 -26.2 4 C-23.2 5.4 -21.1 4.7 -17.9 4.2 C-15.7 4 -14.1 4.2 -12 5 C-11.3 4 -10.7 3 -10 2 C-9.3 2 -8.7 2 -8 2 C-8.3 3.3 -8.7 4.6 -9 6 C-2.4 4.5 -2.4 4.5 -0.6 1.9 C-0.4 1.3 -0.2 0.6 0 0 Z M5 12 C6 14 6 14 6 14 Z M268 12 C268 14 268 16 268 18 C267 18.3 266 18.7 265 19 C265.7 21.3 266.3 23.6 267 26 C268 26 269 26 270 26 C270.1 25.6 270.1 25.6 270.4 23.8 C271 21.2 271.7 19.3 273 17 C272.3 16.3 271.7 15.7 271 15 C271 14 271 13 271 12 C270 12 269 12 268 12 Z M-126 41 C-127.3 46.1 -128.2 49.8 -127 55 C-127.7 57.2 -127.7 57.2 -129 59 C-131.1 59.8 -131.1 59.8 -133 60 C-133 60.7 -133 61.5 -132.9 62.2 C-133 65 -133 65 -133.6 67.1 C-134.1 69.6 -133.3 70.8 -132 73 C-132.7 73.7 -133.3 74.3 -134 75 C-134.4 77.4 -134.4 77.4 -134 80 C-132 82.3 -132 82.3 -130 84 C-130 83 -130 82 -130 81 C-129.5 80.8 -129.5 80.8 -127 80 C-127 79.4 -127.1 78.9 -127.1 78.3 C-127.4 70.1 -126.6 60.9 -122 54 C-123 51 -123 51 -124 49 C-123.5 48.6 -123 48.2 -122.5 47.8 C-120.5 45.4 -120.8 44 -121 41 C-122.7 41 -124.3 41 -126 41 Z M-79 45 C-78.8 45.7 -78.5 46.4 -78.3 47.1 C-77.9 50.9 -79.3 52.7 -81 56 C-80.7 58.4 -80.7 58.4 -80 60 C-78.7 59.7 -77.4 59.3 -76 59 C-75.9 58.6 -75.9 58.6 -75.7 56.8 C-75 54 -75 54 -73.4 51.4 C-72 49 -72 49 -72.3 46.7 C-72.5 46.1 -72.8 45.6 -73 45 C-75 45 -77 45 -79 45 Z M98 64 C98 64.7 98 65.3 98 66 C98.7 66 99.3 66 100 66 C100 65.3 100 64.7 100 64 C99.3 64 98.7 64 98 64 Z M102 65.7 C99.6 67.2 98.4 68.5 97 71 C97.3 73.2 97.3 73.2 98 75 C101 75 101 75 103.6 72.8 C105.8 70.3 106.6 69.2 107 66 C104 65 104 65 102 65.7 Z M-135 84 C-135 85 -135 86 -135 87 C-134.3 87 -133.7 87 -133 87 C-133 86 -133 85 -133 84 C-133.7 84 -134.3 84 -135 84 Z M-98 108 C-98 108.7 -98 109.3 -98 110 C-97.3 109.7 -96.7 109.3 -96 109 C-96.7 108.7 -97.3 108.3 -98 108 Z " fill="#0c0c0c" transform="translate(283,5)"/><path d="M0 0 C0.7 0 1.3 0 2 0 C2 1.3 2 2.6 2 4 C4.8 4.2 4.8 4.2 8 4 C9.8 2 9.8 2 11 0 C11.7 0 12.3 0 13 0 C13.3 1 13.7 2 14 3 C18 4 21.7 4.1 25.8 3.9 C29.4 4 31.4 4.4 34 6.9 C34.3 7.2 34.3 7.2 36 9 C36.7 9.5 37.5 10 38.2 10.5 C38.8 11 39.4 11.5 40 12 C40 13.3 40 14.6 40 16 C41 16 42 16 43 16 C42.9 14.9 42.8 13.9 42.8 12.8 C43 9 43 9 44.8 6.5 C47 5 47 5 48.9 5.3 C49.6 5.5 50.3 5.8 51 6 C51.5 5.9 51.5 5.9 53.8 5.5 C56.6 5.1 58.3 5.1 61.1 5.6 C65 6 65 6 67.3 5 C71 3.6 73.7 4.3 77.6 4.9 C85.2 6.2 85.2 6.2 89 5 C90.4 5.6 91.7 6.3 93 7 C99.2 8.9 105.5 10 112 9 C112.7 8 113.3 7 114 6 C117.2 5.5 117.2 5.5 121.1 5.4 C127.9 5.1 127.9 5.1 129 4 C131 4 133 4 135 4 C135.3 5 135.7 6 136 7 C136.8 6.7 137.7 6.4 138.6 6.1 C144.7 4.2 149 3.5 155 6 C156.3 4.7 157.6 3.4 159 2 C159.3 3.3 159.7 4.6 160 6 C160.9 5.8 161.7 5.6 162.6 5.4 C166.4 5 168.5 5.6 172 7 C172.3 6.7 172.7 6.3 173 6 C175.3 5.6 175.3 5.6 178 6 C178.3 6.4 178.3 6.4 179.8 8.5 C182.2 11.3 182.8 11.5 186.3 11.8 C189.4 11.7 190.6 11.4 192.8 9.2 C193.3 8.4 193.9 7.7 194.4 6.9 C196.1 4.7 196.1 4.7 198 3 C201.5 2.6 204.6 3.3 208 4 C211.5 4.2 211.5 4.2 214 4 C214.7 3.3 215.3 2.7 216 2 C216.7 3 217.3 4 218 5 C218.5 4.8 219.1 4.7 219.6 4.5 C222.5 3.9 225.1 4 228 4 C228.5 3.8 228.5 3.8 231 3 C231.3 3.7 231.7 4.3 232 5 C235.8 5.8 238.3 6.2 242 5 C242.4 5.1 242.4 5.1 244.4 5.6 C247.6 6.1 249.1 5.4 252 4 C253.3 3.6 254.7 3.3 256 3 C256.3 3.7 256.7 4.3 257 5 C260.1 5.6 260.1 5.6 264 6.1 C264.7 6.1 265.4 6.2 266.1 6.3 C268 6.6 270 6.8 272 7 C273 7.1 274 7.2 275 7.3 C277 7.6 279 7.8 281 8 C281 7 281 6 281 5 C281.5 5.1 281.5 5.1 284.2 5.5 C288.4 6 292.4 6 296.5 6 C298.2 6 300 5.9 301.8 5.9 C302.2 5.9 302.2 5.9 304.4 5.9 C308.4 5.9 312.4 6 316.4 6.6 C320.8 7.1 322.9 6.5 327 5 C327.3 4.7 327.7 4.3 328 4 C329.5 3.8 331 3.6 332.6 3.4 C333.4 3.4 334.2 3.3 335.1 3.2 C335.7 3.1 336.3 3.1 337 3 C337.3 2 337.7 1 338 0 C339 0.3 340 0.7 341 1 C341.7 3.1 341.7 3.1 342 5 C343 5 344 5 345 5 C344.7 3.7 344.3 2.4 344 1 C344.7 1.5 345.4 2 346.1 2.5 C349.6 4.3 352 4.3 356 4.4 C362.6 4.7 362.6 4.7 366.1 7.4 C366.4 7.9 366.4 7.9 368 10 C368.7 10.4 369.4 10.7 370.2 11.1 C372.5 12.3 372.9 13.6 374 16 C374.7 16.3 375.3 16.7 376 17 C375.7 17.7 375.3 18.3 375 19 C374.7 20 374.3 21 374 22 C375.3 22.3 376.6 22.7 378 23 C377.5 23.3 377.5 23.3 375 25 C374.9 27 374.9 29 375 31 C375 33 375 33 374.4 35.8 C374 38 374 38 376 41 C375.7 43.2 375.7 43.2 375 45.6 C374.3 47.9 374.3 47.9 374 50 C374.7 50.7 375.3 51.3 376 52 C374.3 53 372.7 54 371 55 C371.2 55.9 371.4 56.9 371.6 57.8 C372 61 372 61 370 64 C370 65.3 370 66.6 370 68 C371 68.3 372 68.7 373 69 C373 69.7 373 70.3 373 71 C371.3 71.3 369.7 71.7 368 72 C368 72.6 368 72.6 368.2 75.8 C368.2 79.8 368.2 79.8 366.5 81.6 C366.3 81.9 366.3 81.9 365 83 C365 84 365 84.9 365 85.9 C365 89.6 364.2 90.2 362 93 C361.7 94.1 361.4 95.2 361.1 96.3 C359.8 100.6 358.2 103.8 355 107 C352.1 108.2 352.1 108.2 349 109 C348.2 109.7 347.3 110.4 346.4 111.1 C341 114.1 333.9 114.1 327.9 112.4 C325.4 111.9 324.1 112.5 321.9 113.4 C318.2 115 318.2 115 316 115 C315.3 114 314.7 113 314 112 C310.6 111.6 307.4 111.6 304 111.5 C303 111.3 302 111.2 301 111 C299.6 109 299.6 109 299 107 C298.5 107.3 298.5 107.3 296 109 C293.8 108.6 293.8 108.6 292 108 C293 106 293 106 296 105 C295.9 104.5 295.7 104 295.6 103.4 C293.6 94.8 293.6 94.8 295 92 C294 92 293 92 292 92 C292.1 91.2 292.3 90.4 292.4 89.6 C292.6 88.5 292.8 87.5 293 86.4 C293.2 85.3 293.4 84.3 293.6 83.2 C294.7 75 294.7 75 292 71 C291.3 71.7 290.7 72.3 290 73 C290.3 73.3 290.7 73.7 291 74 C291.5 79.4 291.5 79.4 289.6 81.8 C287.1 85.2 287.3 88.9 287 93 C286.5 93.2 286.5 93.2 284 94 C284 95.7 284 97.3 284 99 C285.3 99.3 286.6 99.7 288 100 C287.3 100.3 286.7 100.7 286 101 C285.7 102 285.3 103 285 104 C283.7 104 282.4 104 281 104 C281 104.4 281 104.4 281.1 106.4 C281 109 281 109 279 111 C277.8 111.2 276.6 111.3 275.4 111.5 C274.3 111.7 273.2 111.8 272 112 C271.7 112.7 271.3 113.3 271 114 C268.1 113.4 267.1 113.1 265 111 C263.1 111 261.1 110.9 259.2 111 C256 111 253.1 110.5 250 110 C249.7 110.7 249.3 111.3 249 112 C243.2 110.4 243.2 110.4 241 107 C240.9 104.7 240.9 104.7 241.1 102.2 C241.2 97.7 240.4 94.9 238 91 C238.8 90.6 239.7 90.2 240.5 89.8 C240.9 89.5 240.9 89.5 243 88 C243.3 85.4 243.3 85.4 243 83 C243 82.3 243 81.7 243 81 C238.7 83.8 237.6 87.6 236.4 92.5 C236.1 94.5 235.9 96.5 235.7 98.5 C234.9 102.5 233.8 104.1 231 107 C230.7 107.3 230.7 107.3 229.2 108.8 C225.8 110.6 222.9 110.2 219 110 C218.3 111.3 217.7 112.6 217 114 C216.3 114 215.7 114 215 114 C214.7 113 214.3 112 214 111 C213.5 111.3 213.5 111.3 211 113 C207.2 113.2 203.7 113.2 200 112 C199.3 113 198.7 114 198 115 C191.1 114.1 191.1 114.1 190 113 C188 113.1 186 113.1 183.9 113.2 C176.2 113.3 172.4 111.2 166.9 106.1 C165.6 103.1 166.2 101.1 167 98 C164.5 100.4 162.1 102.8 160.1 105.6 C157.7 108.4 155.3 109.6 152 111 C151 110.3 150 109.7 149 109 C149 110.3 149 111.6 149 113 C145.9 113 142.8 113 139.7 113.1 C138.8 113.1 137.9 113.1 137 113.1 C136.2 113.1 135.3 113.1 134.4 113.1 C133.7 113.1 132.9 113.1 132.1 113.1 C130 113 130 113 127 112 C124.7 112.3 122.3 112.6 120 113 C115.1 113.5 111.5 111.8 107 110 C106.7 110.7 106.3 111.3 106 112 C105.8 111.7 105.8 111.7 104.9 110.4 C101.7 105.8 99.3 103 94 101 C93.9 101.6 93.8 102.2 93.6 102.9 C93 105 93 105 91 107 C90 107 89 107 88 107 C88.3 108.3 88.7 109.6 89 111 C87.1 111.2 85.2 111.4 83.3 111.6 C82.3 111.7 81.2 111.8 80.1 111.9 C77.2 112 74.9 111.6 72 111 C71.2 111.4 70.4 111.7 69.5 112.1 C67 113 67 113 64.2 112.1 C63.5 111.8 62.7 111.4 62 111 C61.7 111.7 61.7 111.7 60 115 C59.3 114.3 58.6 113.6 57.9 112.9 C56.9 112.3 56 111.6 55 111 C51.7 111.8 51.7 111.8 49 113 C48.7 112 48.3 111 48 110 C46.4 111 44.7 112 43 113 C42 112.3 41 111.7 40 111 C37.9 111.1 37.9 111.1 35.6 111.5 C31.8 112 29.3 112.2 26 110 C24.7 107.4 24.7 107.4 24 105 C23.4 105.5 22.9 105.9 22.3 106.4 C19.9 108.1 17.8 109 15 110 C14.4 110.3 13.8 110.5 13.1 110.8 C8.9 112.5 5.6 113.3 1 113 C-3.6 113 -7.6 113.5 -12 115 C-12 114 -12 113 -12 112 C-15.3 113 -18.6 114 -22 115 C-23 113.7 -24 112.4 -25 111 C-27.3 110.3 -29.7 109.6 -32 109 C-32.3 108.3 -32.7 107.7 -33 107 C-35 106.3 -37 105.6 -39 105 C-39.7 107 -40.3 109 -41 111 C-41.8 111 -42.5 110.9 -43.3 110.9 C-46 111 -46 111 -49 113 C-50.9 112.7 -50.9 112.7 -53 112 C-57.7 110.5 -62.3 110.7 -67.1 111.6 C-70 112 -70 112 -72.8 111.5 C-76.4 110.9 -79.4 111.3 -82.9 111.7 C-85 112 -85 112 -88 112 C-88 111.3 -88 110.7 -88 110 C-88.8 110.4 -89.7 110.7 -90.6 111.1 C-94.7 112.2 -97 111.4 -101 110 C-101.2 110.7 -101.2 110.7 -102 114 C-108.6 109.1 -108.6 109.1 -109.9 105.2 C-110 104.1 -110 103.1 -110 102 C-110 101.3 -110 100.7 -110.1 100 C-110.2 94 -109.6 88 -109 82 C-109.3 81.8 -109.3 81.8 -111 81 C-111 80.3 -111 79.7 -111 79 C-110.3 79.2 -110.3 79.2 -107 80 C-108 78.3 -109 76.7 -110 75 C-110.5 75.2 -110.5 75.2 -113.1 76 C-116.7 77.2 -120.2 77.1 -124 77 C-124.2 78.1 -124.4 79.1 -124.6 80.2 C-128.7 103.7 -128.7 103.7 -135 110 C-135.4 110.2 -135.4 110.2 -137.6 111 C-140 112 -140 112 -141 114 C-142 113.7 -143 113.3 -144 113 C-144 112.3 -144 111.7 -144 111 C-144.7 111 -145.3 111 -146 111 C-146.3 112 -146.7 113 -147 114 C-147.5 113.7 -147.5 113.7 -150 112 C-152.4 112 -154.8 112 -157.2 112.1 C-163.5 112.3 -167.8 111.8 -173 108 C-174.2 105 -174 104.1 -173 101 C-173.2 100.3 -173.3 99.7 -173.5 99 C-174 97 -174 97 -173 94 C-173 93 -173 92 -173 91 C-173 88 -173 88 -172 85 C-171.7 83.3 -171.3 81.7 -171 80 C-170.3 80 -169.7 80 -169 80 C-169.1 79.3 -169.2 78.7 -169.3 78 C-170.4 69.2 -170.4 69.2 -168 65 C-167 63 -167 63 -167.1 59.8 C-167.2 55.5 -166.5 51.4 -165.7 47.2 C-165.4 45.9 -165.2 44.6 -164.9 43.3 C-164 40 -163.4 39.2 -161 37 C-161 35.7 -161 34.4 -161 33 C-160.4 30.7 -159.7 28.3 -159 26 C-157.6 20.6 -156.7 15.4 -156.4 9.8 C-156 8 -156 8 -153 6 C-152 6.3 -151 6.7 -150 7 C-150 6.3 -150 5.7 -150 5 C-148.6 5.1 -147.1 5.3 -145.7 5.4 C-144.9 5.5 -144.1 5.6 -143.3 5.7 C-141 6 -141 6 -138 7 C-137.7 6.3 -137.3 5.7 -137 5 C-132.3 5.1 -127.5 5.2 -122.8 5.3 C-121.2 5.3 -119.6 5.3 -118 5.3 C-115.7 5.4 -113.3 5.4 -111 5.5 C-110.7 5.5 -110.7 5.5 -108.9 5.5 C-104.2 5.6 -101.1 6.8 -97 9 C-94 8.6 -94 8.6 -91.1 7.6 C-86.2 6.2 -83 6 -78 7 C-76.3 6.7 -74.7 6.4 -73 6 C-72 6.3 -71 6.7 -70 7 C-70 6.3 -70 5.7 -70 5 C-69.4 5.1 -68.8 5.2 -68.2 5.3 C-67.4 5.4 -66.6 5.5 -65.8 5.6 C-65.4 5.6 -65.4 5.6 -63.4 5.9 C-61 6 -59.3 5.6 -57 5 C-53 5 -49.7 5.5 -45.9 6.6 C-44 7 -44 7 -42.1 6.4 C-38.3 5.7 -35.2 7.9 -32 10 C-31.1 10.9 -30.3 11.9 -29.4 12.8 C-27 15 -27 15 -23.9 15.2 C-21 14 -21 14 -19 10.9 C-18.7 10.5 -18.7 10.5 -17 8 C-13.8 7.6 -13.8 7.6 -11 8 C-10.7 6.7 -10.3 5.4 -10 4 C-7.7 4.3 -5.4 4.7 -3 5 C-2.5 4.2 -2.1 3.3 -1.6 2.5 C-1.1 1.7 -0.6 0.8 0 0 Z M298 41 C296.9 43.7 295.9 46.3 295 49 C296 50 297 51 298 52 C300.7 49.3 301.1 46.6 302 43 C300.7 42.3 299.4 41.7 298 41 Z M250 42 C249 45 249 45 250 48 C250.7 48 251.3 48 252 48 C252 46 252 44 252 42 C251.3 42 250.7 42 250 42 Z M247 53 C246.8 53.6 246.5 54.2 246.2 54.9 C244.8 57.4 243.6 58 241 59 C241.2 59.6 241.5 60.2 241.7 60.8 C241.8 61.5 241.9 62.2 242 63 C241.5 63.6 241 64.3 240.5 64.9 C239 67 239 67 239.4 69.5 C239.6 70.3 239.8 71.2 240 72 C239.8 72.7 239.6 73.4 239.4 74.2 C239.3 74.8 239.1 75.4 239 76 C239.7 76.7 240.3 77.3 241 78 C243 77.8 243 77.8 245 77 C247 74 247 74 247 71.5 C247 69 247 69 249 66 C248.6 65.4 248.2 64.9 247.8 64.3 C247.5 63.5 247.3 62.8 247 62 C248 60.3 249 58.6 250 57 C249.7 54.7 249.7 54.7 249 53 C248.3 53 247.7 53 247 53 Z M295 55 C290.9 60.1 290.9 60.1 291.2 63.4 C291.5 63.9 291.7 64.4 292 65 C293.3 65 294.6 65 296 65 C295.9 64.6 295.9 64.6 295.4 62.8 C294.9 59.6 295.6 57.9 297 55 C296.3 55 295.7 55 295 55 Z " fill="#0c0c0c" transform="translate(817,4)"/><path d="M0 0 C0.8 0.1 1.6 0.2 2.4 0.3 C4.6 0.6 4.6 0.6 7.6 1.6 C7.4 4.3 7.3 7 7.2 9.8 C7.2 10.5 7.1 11.3 7.1 12.1 C6.9 16.6 6.1 20.3 4.6 24.6 C4.2 26.9 4.1 29.2 3.9 31.5 C3.6 33.6 3.6 33.6 2.6 35.5 C1.3 38.2 1 40.6 0.6 43.5 C-0.1 47.7 -1 51.6 -2.4 55.6 C-2.5 57.3 -2.5 59 -2.4 60.6 C-2.8 61 -3.1 61.3 -3.4 61.6 C-3.8 63 -4.1 64.4 -4.4 65.8 C-5.2 69.5 -6.2 73 -7.4 76.6 C-7.6 77.5 -7.8 78.4 -7.9 79.2 C-9 84.4 -11.7 87 -15.4 90.6 C-15.9 91.1 -16.4 91.6 -16.9 92.2 C-24 98.8 -38.3 98.7 -47.4 98.6 C-54.3 97.5 -59.6 94.6 -64.4 89.6 C-68 84 -68 75.6 -67.1 69.1 C-66.6 67.3 -66 65.4 -65.4 63.6 C-64.8 60.7 -64.3 57.8 -63.8 54.8 C-63.6 54.2 -63.5 53.5 -63.4 52.8 C-63.1 51.4 -62.9 50 -62.6 48.6 C-61.9 44.5 -60.8 40.6 -59.4 36.6 C-59.1 34.3 -58.7 32 -58.4 29.6 C-57.8 26.3 -57.1 23 -56.4 19.6 C-57.2 20.4 -58 21.2 -58.9 22.1 C-60.1 23.2 -61.2 24.4 -62.4 25.6 C-63.9 25.5 -65.3 25.4 -66.8 25.3 C-69.2 25.3 -69.2 25.3 -71.4 25.6 C-74.5 28.7 -75.4 30.5 -75.5 34.9 C-75.5 36.2 -75.5 37.4 -75.4 38.6 C-76.2 41.7 -77.3 44.6 -78.4 47.6 C-79.8 51.8 -80.6 55.8 -81.3 60.1 C-82.2 65.3 -83.3 70.4 -84.6 75.5 C-85.8 80.2 -86.8 84.9 -87.7 89.7 C-88.4 92.6 -88.4 92.6 -90.4 95.6 C-93.2 96 -93.2 96 -96.7 96 C-98 95.9 -99.2 95.9 -100.5 95.9 C-101.8 95.9 -103.1 95.9 -104.5 95.9 C-105.8 95.9 -107.1 95.9 -108.5 95.9 C-118.3 95.8 -118.3 95.8 -119.4 94.6 C-120.3 84.5 -118.5 76.2 -115.4 66.6 C-114.7 63.6 -114.1 60.6 -113.4 57.6 C-113.1 56.2 -112.8 54.9 -112.5 53.5 C-111.6 49.3 -110.7 45.2 -109.9 41 C-109.6 39.8 -109.4 38.5 -109.1 37.3 C-108.5 33.7 -107.9 30.2 -107.4 26.6 C-108.9 26.3 -108.9 26.3 -116.4 24.6 C-117.7 19.3 -117.1 15.1 -116.1 9.8 C-115.9 9 -115.8 8.3 -115.6 7.5 C-114.6 1.8 -114.6 1.8 -113.4 0.6 C-111.8 0.5 -110.2 0.5 -108.5 0.5 C-107.5 0.5 -106.4 0.5 -105.3 0.5 C-104.2 0.5 -103.1 0.5 -101.9 0.5 C-100.7 0.5 -99.6 0.5 -98.4 0.4 C-95.9 0.4 -93.4 0.4 -90.9 0.4 C-87.2 0.4 -83.4 0.4 -79.6 0.4 C-77.2 0.4 -74.8 0.4 -72.4 0.4 C-71.3 0.4 -70.1 0.4 -68.9 0.4 C-67.9 0.4 -66.8 0.4 -65.7 0.4 C-64.8 0.4 -63.9 0.4 -62.9 0.4 C-60.4 0.6 -60.4 0.6 -56.4 2.6 C-56.8 7.2 -57.1 11.9 -57.4 16.6 C-56.8 17 -56.1 17.3 -55.4 17.6 C-55.2 16.6 -55.1 15.7 -54.9 14.7 C-54.6 13.4 -54.3 12.1 -54.1 10.8 C-53.8 9.5 -53.6 8.3 -53.3 7 C-52.4 3.6 -52.4 3.6 -50.4 0.6 C-48.5 0.3 -48.5 0.3 -46.2 0.3 C-45.3 0.3 -44.5 0.3 -43.6 0.3 C-42.6 0.3 -41.7 0.3 -40.7 0.4 C-40.2 0.4 -40.2 0.4 -37.8 0.4 C-34.6 0.4 -31.5 0.5 -28.4 0.5 C-25.3 0.5 -22.2 0.6 -19.1 0.6 C-17.2 0.6 -15.3 0.6 -13.3 0.7 C-12.4 0.7 -11.6 0.7 -10.7 0.7 C-10.3 0.7 -10.3 0.7 -8.3 0.7 C-5.2 0.6 -3.3 -0.4 0 0 Z " fill="#fff" transform="translate(275.4375,14.375)"/><path d="M0 0 C7.1 0.8 7.1 0.8 10.4 -0.3 C11.3 -0.2 12.2 -0 13 0.1 C18.1 1 23.1 0.7 28.2 0.6 C30.3 0.5 32.3 0.6 34.4 0.7 C36.8 3.1 36.8 3.6 36.8 6.8 C36.7 11.8 35.7 16.4 34.6 21.2 C34.5 21.5 34.5 21.5 34 23.3 C32.7 28.4 32.7 28.4 30.4 30.7 C30 31.8 29.5 33 29 34.1 C27.6 37.4 26.8 38.3 24.4 40.7 C23.7 42.3 23.1 43.9 22.4 45.6 C20.6 49.6 18.4 53.5 16.3 57.4 C15.4 59.1 14.5 60.8 13.6 62.5 C13.2 63.2 12.8 64 12.4 64.7 C11.4 66.7 11.4 66.7 10.4 69.7 C11.1 69.8 11.8 69.9 12.5 70.1 C13.4 70.2 14.3 70.4 15.2 70.6 C16.1 70.7 17 70.9 18 71.1 C20.4 71.7 20.4 71.7 23.4 73.7 C23.7 72.5 24 71.3 24.2 70.1 C25.1 66.9 26.1 63.9 27.5 60.8 C29.2 56.9 30.7 52.9 32.2 49 C33.3 46.1 34.4 43.3 35.6 40.4 C37.2 36.6 38.1 32.9 38.9 28.9 C39.7 25.7 41 22.9 42.4 20 C43.5 17.5 44.3 15.1 45 12.5 C46.1 8.6 47.2 5.1 49.4 1.7 C53.2 0.2 57.4 0.5 61.4 0.5 C62.2 0.5 62.9 0.5 63.7 0.5 C65.4 0.5 67 0.5 68.6 0.5 C71.1 0.5 73.5 0.5 76 0.5 C77.6 0.5 79.2 0.5 80.7 0.5 C81.5 0.4 82.2 0.4 83 0.4 C88.2 0.5 88.2 0.5 90.4 2.7 C92.1 16.3 89.7 31.6 87.9 45.2 C87.5 48 87.4 50.5 87.5 53.4 C87.6 57.2 87.1 60.8 86.4 64.6 C85.2 71.3 85.4 77.9 85.8 84.8 C85.9 89.2 85.9 91.1 83.2 94.8 C80 97 79.1 97.1 75.4 96.4 C70.1 95.7 65.4 95.9 60.1 96.6 C57.2 96.7 55.8 96.2 53.4 94.7 C53.4 93.7 53.4 92.7 53.4 91.7 C52.9 92.3 52.3 93 51.7 93.7 C46.8 96.7 42.3 96.2 36.7 96 C35.5 96 34.4 96 33.2 96 C29.5 96 25.9 95.9 22.2 95.9 C18.5 95.8 14.9 95.8 11.2 95.8 C9 95.7 6.7 95.7 4.4 95.7 C-1 95.6 -6.2 95.7 -11.6 96.5 C-15.2 96.9 -18.8 96.7 -22.5 96.4 C-23.3 96.4 -24 96.4 -24.8 96.4 C-27 96.2 -27 96.2 -30.6 95.7 C-33.2 91.8 -32.5 90.3 -31.6 85.7 C-28.8 74.4 -24.3 64.7 -18.6 54.6 C-16.6 50.9 -14.7 47 -12.9 43.1 C-11.6 40.8 -10.2 38.8 -8.6 36.7 C-7.1 33.4 -5.7 30.1 -4.6 26.7 C-5.7 26.6 -6.7 26.6 -7.9 26.6 C-11.6 25.7 -11.6 25.7 -13.4 23.1 C-14.8 18.9 -14.4 15.8 -13.5 11.6 C-13.4 10.9 -13.3 10.2 -13.1 9.4 C-12.5 6.3 -11.7 3.9 -9.9 1.2 C-6.6 -0.9 -3.7 -0.5 0 0 Z " fill="#fff" transform="translate(454.5625,14.3125)"/><path d="M0 0 C0.4 0 0.4 0 2.5 0.2 C2.9 0.2 2.9 0.2 5.1 0.4 C10.6 0.9 15.3 1 20.8 0 C21.8 0.4 22.7 0.7 23.8 1 C25.6 1 27.5 1 29.3 0.9 C35.2 0.9 40.5 1.4 45.8 4 C50.8 9.7 51 15.6 51 22.9 C51 23.6 51.1 24.3 51.1 25 C51.1 30 49.9 33.4 47.8 38 C47.3 40.7 47.3 40.7 47.1 43.2 C47.1 44 47 44.9 46.9 45.7 C46.9 46.5 46.8 47.3 46.8 48 C46.4 50.7 46 52.6 44.8 54.9 C43.6 57.3 43.5 59.2 43.3 61.9 C42.9 66.5 41.6 69.8 39.8 74 C39.5 75.7 39.3 77.3 39.1 78.9 C38 85.1 34.4 89 29.8 93 C25.4 95.6 21 95.8 16.1 96.2 C15.1 96.3 14.2 96.4 13.3 96.5 C6.5 97.1 -0 97 -6.7 96.4 C-9.8 96.1 -12.3 96 -15.3 96.6 C-19 97.1 -21.7 96.2 -25.2 95 C-25.1 92.5 -25 89.9 -24.9 87.3 C-24.8 86.9 -24.8 86.9 -24.8 85.1 C-24.6 81.2 -24 78.5 -22.2 75 C-21.7 72.4 -21.2 69.7 -20.8 67 C-19.8 60.9 -18.5 54.9 -16.9 48.8 C-16.2 46 -15.7 43.2 -15.2 40.4 C-14.7 37 -13.9 33.8 -12.7 30.6 C-11.1 26.1 -10.4 21.6 -9.8 16.8 C-9.2 14 -8.3 11.7 -7.2 9 C-7.3 8 -7.3 7 -7.3 5.9 C-7.2 3 -7.2 3 -6 1.4 C-3.8 -0.3 -2.7 -0.2 0 0 Z " fill="#78dc28" transform="translate(872.23828125,13.9609375)"/><path d="M0 0 C2.6 -0 5.3 -0 7.9 -0 C9.6 -0 11.3 -0 13 -0 C13.8 -0.1 14.6 -0.1 15.4 -0.1 C19.2 -0.1 21 0 24.3 2.2 C25.1 9.9 23.2 16.8 21.3 24.2 C20.5 27.7 19.7 31.2 18.9 34.7 C18.3 37.2 18.3 37.2 17.3 38.2 C16.9 40.3 16.6 42.5 16.4 44.6 C14.2 60.5 14.2 60.5 12.3 64.1 C11.1 66.5 10.8 68.6 10.3 71.2 C5.8 88 5.8 88 -0.3 91.8 C-3 93.3 -5.8 94.8 -8.7 96.2 C-9 96.4 -9 96.4 -10.7 97.3 C-19.3 101.1 -30.9 99.2 -39.7 97.2 C-43.8 95.1 -46.6 92.5 -49.7 89.2 C-50 88.9 -50.4 88.5 -50.7 88.2 C-50.8 85.5 -50.8 82.8 -50.8 80.1 C-50.8 79.7 -50.8 79.7 -50.8 77.8 C-50.8 73.2 -50.4 68.8 -49.7 64.2 C-49.6 62.7 -49.4 61.3 -49.3 59.8 C-48.8 55.1 -47.6 50.7 -46.2 46.1 C-44.5 40.4 -43.4 35.1 -42.7 29.2 C-42.1 26.8 -42.1 26.8 -41.4 24.7 C-39.7 19.4 -38.4 14 -37.2 8.5 C-35.9 3.4 -35.9 3.4 -33.7 1.2 C-22.6 -0.3 -11.2 -0 0 0 Z " fill="#78dc28" transform="translate(970.704833984375,13.814697265625)"/><path d="M0 0 C0.8 0.1 1.5 0.3 2.3 0.4 C7 1.4 11.1 3.3 15 6 C19.8 14.4 16.3 28 14 37 C13 40.3 12 42 9.8 44.6 C7.5 49 8.1 51.6 8.8 56.4 C9.1 59.7 8.1 61.9 7 65 C6.9 67.3 7 69.6 7.1 71.9 C7 74.4 6.2 75.8 5 78 C4.6 79.6 4.3 81.2 4 82.9 C3.3 86.7 2.5 90.4 1 94 C-1.3 95.2 -2.7 95.1 -5.3 95.1 C-6.1 95.1 -7 95 -7.9 95 C-9.7 95 -11.5 95 -13.3 95 C-17.3 94.9 -21.2 95 -25.3 95.5 C-28.8 96 -31.8 95.9 -35.3 95.5 C-39.7 95.1 -43.6 95.1 -48 95.6 C-51.3 96 -53 96 -56.2 95.1 C-58 93 -58 93 -58.4 89.2 C-58.3 87.8 -58.2 86.4 -58 85 C-57.9 83.8 -57.8 82.6 -57.6 81.4 C-57 78 -57 78 -56.1 75.4 C-54.7 71.1 -53.9 66.8 -53.1 62.4 C-51.8 55.4 -50.1 48.7 -47.8 41.8 C-46.8 38.2 -46.5 34.8 -46.3 31.1 C-45.9 28.3 -44.5 26.4 -43 24 C-42.8 21.3 -42.9 18.7 -43 16 C-42.7 15.7 -42.3 15.3 -42 15 C-41.8 13.6 -41.7 12.2 -41.6 10.8 C-41.2 6.8 -40.6 4.1 -38 1 C-35.3 0.1 -33.5 -0.2 -30.7 -0.3 C-29.8 -0.4 -29 -0.4 -28.1 -0.4 C-27.2 -0.5 -26.3 -0.5 -25.4 -0.6 C-24.6 -0.6 -23.7 -0.6 -22.8 -0.7 C-5.8 -1.5 -5.8 -1.5 0 0 Z " fill="#78dc28" transform="translate(600,15)"/><path d="M0 0 C1 -0 1.9 -0 2.9 -0.1 C10.2 -0.1 14.9 1 20.9 5.2 C26.3 12.6 25.9 23.5 25.1 32.2 C24.5 35.1 23.7 37.8 22.9 40.6 C21.9 44.1 21.6 47.5 21.4 51.2 C21.1 53.2 21.1 53.2 19.1 56.2 C18.6 58.1 18.6 58.1 18.2 60.3 C18.2 60.7 18.2 60.7 17.8 62.7 C17.6 63.5 17.5 64.3 17.3 65.2 C13.4 84.9 13.4 84.9 5.1 91.2 C4.6 92 4.1 92.7 3.6 93.4 C0.3 97.6 -6 98 -11.1 98.7 C-14.3 98.9 -17.6 99.1 -20.9 99.2 C-21.8 99.3 -22.7 99.4 -23.7 99.4 C-32.1 99.7 -37.9 97 -44.2 91.4 C-47.3 87.4 -46.8 83.2 -46.5 78.4 C-46.5 77.4 -46.5 76.5 -46.4 75.5 C-46.3 69.6 -45.4 64 -43.9 58.2 C-43.6 57.2 -43.4 56.2 -43.1 55.2 C-42.9 54.3 -42.6 53.4 -42.4 52.4 C-41.1 47.3 -40.2 42.2 -39.4 36.9 C-38.9 34.2 -37.9 31.8 -36.9 29.2 C-36.6 27.8 -36.3 26.4 -36 24.9 C-34.2 16.7 -30.5 10.5 -23.9 5.2 C-16.2 0.4 -8.9 0 0 0 Z " fill="#78dc28" transform="translate(1161.875,12.75)"/><path d="M0 0 C3.8 3.1 5.6 6.8 6.8 11.5 C6.9 14.6 6.4 17.4 5.8 20.5 C5.8 21.5 5.9 22.5 5.9 23.5 C5.8 28.4 5.4 33.9 1.8 37.5 C1.1 39.1 0.5 40.8 -0.2 42.5 C-0.5 42.8 -0.8 43.1 -1.2 43.5 C-1.2 45.3 -1.1 47.2 -1.1 49 C-1 60 -3 71 -6.5 81.4 C-7.2 83.4 -7.6 85.4 -8.1 87.5 C-9.2 90.5 -9.2 90.5 -11.4 91.7 C-14.5 92.6 -17.2 92.7 -20.5 92.6 C-21.7 92.6 -22.9 92.6 -24.2 92.6 C-25.4 92.6 -26.7 92.6 -28 92.5 C-42 92.4 -42 92.4 -46.5 93 C-50.8 93.6 -54.4 93.2 -58.6 92.6 C-59 92.6 -59 92.6 -60.8 92.3 C-66 91.6 -66 91.6 -67.2 90.5 C-67.5 83.7 -66.5 77.2 -65.4 70.5 C-65.2 69.5 -65 68.5 -64.9 67.4 C-63.9 61.9 -62.8 56.7 -60.9 51.4 C-59 46.3 -58.1 41.2 -57.5 35.7 C-56.9 32 -55.9 28.4 -55 24.7 C-52.8 16.3 -51 8.1 -50.2 -0.5 C-49.8 -1.2 -49.5 -1.8 -49.2 -2.5 C-48.6 -2.5 -48.6 -2.5 -45.6 -2.5 C-44 -2.5 -42.4 -2.5 -40.9 -2.5 C-40.5 -2.4 -40.5 -2.4 -38.5 -2.4 C-38.1 -2.4 -38.1 -2.4 -36.2 -2.4 C-35.8 -2.4 -35.8 -2.4 -34.1 -2.4 C-8 -4 -8 -4 0 0 Z " fill="#78dc28" transform="translate(779.17578125,17.515625)"/><path d="M0 0 C0.8 0 1.7 0 2.6 0.1 C8.1 0.4 12.1 1.9 16 6 C20.8 14.7 21.3 25 18.6 34.4 C18.3 35.4 18.1 36.3 17.8 37.2 C17.1 39.8 16.5 42.3 16 44.9 C15.1 49.7 13.9 54.4 12.7 59.1 C12.1 61.7 11.5 64.4 11.1 67.1 C9.3 76.2 6.3 86.6 -1.1 92.8 C-11.5 99.7 -24.8 100 -37 99 C-42.4 97.4 -46.2 94.1 -50 90 C-54.4 81.5 -51.5 71 -49.6 62.1 C-49.2 59.9 -48.7 57.7 -48.3 55.4 C-48.1 54.4 -47.9 53.3 -47.6 52.2 C-46.4 46.1 -45.2 40.1 -44.5 33.9 C-44 31 -44 31 -42 29 C-42 28.3 -42.1 27.6 -42.1 26.9 C-41.9 22.5 -40 19 -38 15 C-37.7 14.3 -37.4 13.7 -37.1 13 C-34.8 8.5 -32.6 6.9 -28 5 C-27.6 4.5 -27.1 4 -26.7 3.5 C-20.7 -1.9 -7.5 -0.3 0 0 Z " fill="#78dc28" transform="translate(834,13)"/><path d="M0 0 C0.8 -0 1.7 -0 2.6 -0 C9.3 -0.1 15.8 0.9 21.4 5 C26.4 11.9 27.6 16.8 26.4 25.2 C26.3 25.7 26.3 25.7 26.1 27.8 C25.8 29.5 25.6 31.2 25.4 32.8 C25 36 24.7 39.2 24.4 42.4 C24.1 44.3 24.1 44.3 22.1 47.3 C19.6 47.6 19.6 47.6 16.6 47.6 C16 47.6 16 47.6 13.2 47.5 C12.1 47.5 10.9 47.5 9.8 47.4 C7.5 47.4 5.2 47.4 2.9 47.3 C2.4 47.3 2.4 47.3 -0.1 47.2 C-2.8 47.3 -5.3 47.7 -7.9 48.3 C-7.9 49.6 -7.9 51 -7.9 52.3 C-5.2 53.7 -3.1 53.4 0 53.3 C4.4 53.3 8.8 53.3 13.2 53.6 C14.1 53.6 15 53.7 15.9 53.7 C18.1 54.3 18.1 54.3 19.4 56.1 C20.6 59.9 19.9 63.8 18.1 67.3 C17 69.4 16.7 71.1 16.3 73.4 C14.7 81 10.8 88.1 5.1 93.3 C3.4 94.4 1.8 95.4 0.1 96.3 C-0.9 97 -1.9 97.6 -2.9 98.3 C-5.9 98.7 -5.9 98.7 -9.5 98.9 C-13.7 99.1 -17.8 99.4 -21.9 100.2 C-28.7 100.9 -37.4 98 -42.8 93.9 C-46.4 89 -46.8 80.3 -46.9 74.3 C-46.8 74.1 -46.8 74.1 -45.9 73.3 C-45.5 70.2 -45.1 67 -44.8 63.9 C-44.4 60.3 -44 58.3 -41.9 55.3 C-41.4 52.5 -40.9 49.8 -40.4 47 C-39.6 41.9 -38.6 37.2 -36.9 32.3 C-36.6 30.7 -36.3 29.1 -36.1 27.5 C-34.3 18.6 -30.7 10.6 -23.3 5.1 C-16 0.5 -8.3 -0 0 0 Z " fill="#78dc28" transform="translate(1033.9375,12.6875)"/><path d="M0 0 C4.5 2.3 7.7 5.7 9.8 10.2 C10.5 13.8 10.4 17.2 10.3 20.8 C10.3 21.3 10.3 21.3 10.3 23.7 C10.2 28.3 9.9 32 7.8 36.2 C7.8 37.2 7.8 38.3 7.8 39.3 C7.8 42.2 7.8 42.2 5.8 45.2 C3.5 45.5 3.5 45.5 0.6 45.4 C-0.5 45.4 -1.5 45.4 -2.6 45.4 C-3.1 45.4 -3.1 45.4 -5.9 45.3 C-19 44.9 -19 44.9 -24.2 47.2 C-24.5 48.9 -24.8 50.5 -25.2 52.2 C-24.4 52.2 -23.7 52.2 -22.9 52.2 C-19.5 52.1 -16.2 52.1 -12.8 52.1 C-11.6 52.1 -10.4 52.1 -9.2 52 C-8.7 52 -8.7 52 -5.8 52 C-4.8 52 -3.8 52 -2.7 52 C-0.2 52.2 -0.2 52.2 1.8 54.2 C2.9 65.2 -0.1 78.3 -6.6 87.2 C-11.1 92.3 -15.8 93.7 -22.2 95.2 C-23 95.6 -23.9 96 -24.8 96.3 C-31.8 98.9 -38.2 98.1 -45.3 96.7 C-46.2 96.5 -47 96.4 -47.9 96.2 C-52.7 95.3 -56.9 94.1 -60.1 90.4 C-62.6 85.3 -61.9 79.3 -61.8 73.8 C-61.8 72.4 -61.8 71.1 -61.7 69.7 C-61.5 60.3 -60.3 52.1 -57.2 43.2 C-56.8 41.7 -56.4 40.1 -56.1 38.5 C-54.9 33.1 -53.6 27.6 -52.2 22.2 C-52 21.4 -51.8 20.6 -51.6 19.8 C-49.8 13.2 -46.1 8.9 -41.2 4.2 C-40.6 3.7 -40 3.1 -39.4 2.6 C-33.9 -1.7 -27.4 -1.5 -20.7 -1.6 C-6.2 -2.2 -6.2 -2.2 0 0 Z " fill="#78dc28" transform="translate(143.16796875,14.78125)"/><path d="M0 0 C6.5 1 13.1 0.5 19.7 0.4 C20.2 0.4 20.2 0.4 22.8 0.4 C23.8 0.3 24.7 0.3 25.7 0.3 C28.1 0.5 28.1 0.5 31.1 2.5 C31.5 4.7 31.5 4.7 31.5 7.4 C31.5 8.4 31.4 9.4 31.4 10.4 C31.4 11.4 31.4 12.4 31.4 13.4 C31.4 14.5 31.4 15.5 31.4 16.5 C31.3 24 31.3 24 30.1 27.5 C30 29 29.9 30.4 29.8 31.8 C29.8 32.3 29.8 32.3 29.7 34.5 C29.7 35.4 29.7 36.4 29.6 37.3 C29.6 37.8 29.6 37.8 29.5 40.3 C29.3 45.2 29.1 50.1 28.9 55 C28.5 68.6 27 82 25.1 95.5 C21.6 95.7 18.1 95.9 14.6 96.1 C14.1 96.1 14.1 96.1 11.7 96.2 C5.3 96.6 -0.8 96.7 -7.1 94.9 C-8.9 94.5 -8.9 94.5 -11.1 95 C-13.9 95.5 -16.6 95.7 -19.4 95.8 C-20.4 95.9 -21.4 95.9 -22.5 96 C-23.5 96 -24.6 96 -25.7 96.1 C-26.8 96.1 -27.8 96.2 -28.9 96.2 C-31.6 96.3 -34.2 96.4 -36.9 96.5 C-39.4 93.3 -39.9 91.8 -39.7 87.7 C-39 83.6 -37.6 79.9 -35.9 76.1 C-33.9 71.3 -32.4 66.7 -31.4 61.6 C-30.5 58.1 -28.7 55.1 -27 51.9 C-25.5 48.8 -25.2 45.9 -24.9 42.5 C-24.2 41.5 -23.6 40.5 -22.9 39.5 C-21.8 36.5 -20.8 33.5 -19.9 30.5 C-18.8 27.4 -17.8 24.3 -16.8 21.3 C-15.7 18.2 -14.7 15.1 -13.8 12 C-13.5 10.9 -13.1 9.9 -12.8 8.8 C-12.5 7.8 -12.2 6.9 -12 5.9 C-10.4 2.6 -8.4 1.1 -5.1 -0.2 C-2.9 -0.5 -2.9 -0.5 0 0 Z " fill="#78dc28" transform="translate(307.87109375,14.48828125)"/><path d="M0 0 C5.7 -0.1 11.3 -0.1 17 -0.2 C18.9 -0.2 20.8 -0.2 22.8 -0.2 C25.5 -0.3 28.3 -0.3 31.1 -0.3 C31.5 -0.3 31.5 -0.3 33.7 -0.3 C36.1 -0.3 36.1 -0.3 40 0 C42.5 3.7 42.1 5.1 41.8 9.5 C41.7 10.8 41.6 12.1 41.5 13.4 C41.4 14.8 41.3 16.2 41.2 17.6 C41.1 18.9 41 20.3 40.9 21.6 C40.5 27.2 40 32.7 39.5 38.3 C38.8 44.3 38.6 50.4 38.4 56.4 C38.2 60.2 38 63.9 37.5 67.7 C37 71.3 36.9 74.8 37 78.5 C37.1 83.5 37 88.1 36 93 C34 95 34 95 31.5 95.2 C30.4 95.2 29.4 95.2 28.3 95.2 C27.2 95.2 26 95.2 24.9 95.2 C23.7 95.2 22.5 95.2 21.2 95.2 C20.1 95.2 18.9 95.2 17.7 95.2 C8.8 95.1 8.8 95.1 4.7 94.4 C2 94 2 94 0 95 C-3.3 95.1 -6.6 95 -9.8 94.9 C-13 95 -13 95 -15 95.6 C-17.9 96.2 -20.3 95.6 -23.2 95.1 C-23.7 95 -23.7 95 -26.4 94.6 C-29 94 -29 94 -30 93 C-29.5 85.2 -26.8 77.5 -23.9 70.4 C-23 68.1 -22.6 66.1 -22.1 63.7 C-21.3 59.7 -19.9 56.5 -17.9 52.9 C-16.5 50.1 -15.8 47.1 -15 44 C-13.9 40.4 -12.6 37 -11.1 33.5 C-8.9 28.1 -7.4 22.6 -5.9 17 C-5 14 -5 14 -3 11 C-2.4 8.8 -2.4 8.8 -1.9 6.4 C-1.5 4.1 -1.1 2.2 0 0 Z " fill="#78dc28" transform="translate(38,15)"/><path d="M0 0 C3.1 0.2 3.1 0.2 5.9 -0.4 C11.2 -1.2 16.3 -0.3 21.6 0.3 C22.8 0.4 23.9 0.5 25 0.6 C34.2 1.6 34.2 1.6 37.3 4.6 C42 11.3 40.3 19.2 39.1 26.9 C38.5 30.7 37.8 34.4 37.1 38.2 C37 38.6 37 38.6 36.5 41.1 C35.4 46.7 33.9 51.2 30 55.3 C22.5 60 14.8 60.6 6.1 60.2 C5.9 60.9 5.8 61.7 5.6 62.5 C5.1 65.2 5.1 65.2 4.1 67.8 C2.4 73.2 1.4 78.6 0.7 84.1 C0.5 85.1 0.4 86.1 0.3 87.1 C0.1 88 0 88.9 -0.1 89.8 C-0.9 92.2 -0.9 92.2 -2.8 94 C-7.4 95.7 -11.6 95.5 -16.4 95.4 C-16.9 95.4 -16.9 95.4 -19.3 95.4 C-23.6 95.3 -27.7 95.1 -31.9 94.2 C-33.1 89.3 -32.7 85.7 -31.6 80.8 C-30.7 76.7 -29.8 72.7 -29.4 68.5 C-28.9 65.2 -28.9 65.2 -27.4 62.6 C-25.9 60.2 -25.9 60.2 -25.9 56.9 C-25.9 53.5 -25.6 51.9 -24.5 48.8 C-23 44.6 -22.5 40.8 -22.2 36.3 C-21.9 34.2 -21.9 34.2 -19.9 31.2 C-19.5 29.2 -19.2 27.2 -18.9 25.3 C-18.4 21.2 -17.5 17.9 -15.9 14.2 C-15.6 11.9 -15.6 11.9 -15.4 9.7 C-15.1 6.2 -14.7 3.2 -12.9 0.2 C-8.7 -1.5 -4.4 -0.5 0 0 Z " fill="#78dc28" transform="translate(680.9296875,14.84375)"/><path d="M0 0 C0.7 -0 1.4 -0 2.2 -0 C7.6 -0 7.6 -0 9.8 2.2 C9.4 6.6 8.5 10.8 7.6 15.1 C6.5 19.9 5.5 24.6 4.6 29.4 C4.5 29.9 4.5 29.9 4 32.7 C3.5 34.9 3.1 37.1 2.7 39.3 C1.6 44.8 0.3 50 -1.5 55.3 C-2.4 58 -2.9 60.7 -3.4 63.5 C-3.5 64 -3.5 64 -3.9 66.5 C-4.2 69.1 -4.3 71.6 -4.2 74.2 C-3.7 74.4 -3.7 74.4 -1.2 75.2 C0.9 71.7 1.6 67.9 2.4 63.9 C2.6 62.4 2.9 60.9 3.2 59.4 C3.4 58.6 3.5 57.9 3.7 57.1 C5.8 45.7 8.1 34.5 11.2 23.3 C12.9 17.3 14.1 11.2 15.2 5 C15.8 2.2 15.8 2.2 16.8 1.2 C19.2 1 21.5 0.7 23.9 0.6 C25.2 0.5 26.5 0.3 27.9 0.2 C32.1 0.3 34.9 0.9 38.8 2.2 C38.3 9.3 37.2 16 35.6 22.8 C35.4 23.8 35.2 24.8 35 25.8 C33 34.4 31 43 28.9 51.6 C26.8 60.2 26.8 60.2 26 64.4 C24.4 72.7 21.5 79.5 14.8 84.9 C12.8 86.2 10.9 87.3 8.8 88.2 C8.1 88.6 7.3 89 6.6 89.4 C-0.7 91.7 -11.3 91.5 -18.4 88.6 C-21.9 86.6 -24.7 84.4 -27.2 81.2 C-28 78.4 -28 78.4 -28.2 76.2 C-27.4 76.1 -27.4 76.1 -23.2 75.2 C-23.2 74.6 -23.2 73.9 -23.2 73.2 C-24.8 72.9 -26.5 72.6 -28.2 72.2 C-25.7 58.6 -22.9 45.2 -19.7 31.7 C-19 28.4 -18.3 25 -17.6 21.7 C-17.3 20.6 -17.1 19.6 -16.9 18.4 C-16.4 16.2 -15.9 13.9 -15.5 11.6 C-15.4 11 -15.4 11 -14.8 8 C-14.6 6.9 -14.4 5.9 -14.2 4.8 C-13.2 2.2 -13.2 2.2 -11.1 0.9 C-7.4 0.1 -3.8 -0 0 0 Z " fill="#78dc28" transform="translate(240.1875,17.75)"/><path d="M0 0 C1.3 0 2.7 0 4 0 C4.7 0 5.4 0 6.2 0 C8.4 0.1 10.7 0.1 13 0.1 C14.5 0.1 16 0.1 17.6 0.1 C21.3 0.2 25.1 0.2 28.8 0.2 C29.6 3.6 29.9 6.5 29.6 9.9 C29.6 10.4 29.6 10.4 29.4 12.8 C29.3 13.9 29.2 14.9 29.1 16 C28.3 25.5 27.7 35 27.1 44.5 C27 45.5 27 46.6 26.9 47.7 C26.7 52.1 26.4 56.4 26.2 60.8 C26 63.9 25.8 67 25.6 70.1 C25.6 71 25.5 72 25.5 72.9 C24.8 84.3 24.8 84.3 21.8 87.2 C14.6 88.2 7.7 89 0.8 86.2 C0.8 81.9 0.8 77.6 0.8 73.2 C-1.1 73.2 -3.1 73.2 -5.2 73.2 C-5.5 74.2 -5.9 75.1 -6.2 76 C-6.7 77.2 -7.1 78.4 -7.6 79.7 C-8.1 80.9 -8.5 82.1 -9 83.3 C-10.2 86.2 -10.2 86.2 -11.2 87.2 C-12.8 87.3 -14.4 87.3 -16.1 87.3 C-17.1 87.3 -18.1 87.3 -19.1 87.3 C-20.1 87.3 -21.2 87.3 -22.2 87.3 C-23.3 87.3 -24.3 87.3 -25.4 87.3 C-28 87.3 -30.6 87.2 -33.2 87.2 C-32.9 85.6 -32.6 84 -32.3 82.4 C-32.1 81.5 -31.9 80.7 -31.7 79.7 C-31.1 77.1 -30.1 74.7 -29 72.2 C-28 69.8 -27.3 67.4 -26.5 64.8 C-23.5 55 -20.1 45.4 -16.7 35.7 C-15.7 32.8 -14.7 30 -13.7 27.1 C-13 25.3 -12.4 23.5 -11.7 21.6 C-9.7 15.9 -7.8 10.1 -6 4.3 C-4.6 0.8 -3.7 0.3 0 0 Z " fill="#78dc28" transform="translate(511.16455078125,18.77294921875)"/><path d="M0 0 C11.8 0.6 23.6 0.7 35.4 0.6 C38.8 6.9 37.1 13.9 35.3 20.6 C34 24.1 33.7 24.4 30.1 26.2 C26.6 26.5 23.9 26.2 20.4 25.6 C16.5 40.5 16.5 40.5 15.5 47.9 C14.7 54 13.1 59.7 11.3 65.5 C9.5 71.8 8.4 78.1 7.6 84.6 C7 89.4 5.8 92.2 2.4 95.6 C-0.5 97.1 -3.3 96.7 -6.6 96.6 C-6.7 96.4 -6.7 96.4 -7.6 95.6 C-11 95.5 -14.3 95.6 -17.7 95.7 C-19.7 95.7 -21.6 95.6 -23.6 95.6 C-26 93.1 -26.3 91.2 -26.7 87.9 C-26.5 84.3 -25 81.6 -23.6 78.4 C-22 74 -21.6 69.5 -21.1 64.9 C-20.6 62 -20 59.5 -19.1 56.8 C-17.6 52.2 -16.8 47.6 -15.9 42.9 C-15.8 42.2 -15.7 41.5 -15.6 40.8 C-14.8 36.1 -14.1 31.3 -13.6 26.6 C-14.2 26.4 -14.8 26.3 -15.5 26.2 C-16.3 26 -17.1 25.8 -18 25.6 C-18.4 25.5 -18.4 25.5 -20.5 25.1 C-22.6 24.6 -22.6 24.6 -23.6 23.6 C-24.4 15.4 -23.1 7.4 -18.6 0.6 C-12.4 -0.9 -6.3 -0.3 0 0 Z " fill="#78dc28" transform="translate(1088.5625,14.4375)"/><path d="M0 0 C3.6 6.6 1.8 13.1 0 20 C-0.2 20.5 -0.2 20.5 -1 23.2 C-2.2 27.6 -3 32 -3.9 36.5 C-5.1 42.8 -6.5 49 -8.2 55.2 C-9.7 60.4 -10.4 64.7 -10 70 C-9.7 70 -9.7 70 -8.1 69.9 C-7.3 69.9 -6.5 69.8 -5.6 69.8 C-4.8 69.8 -4 69.7 -3.2 69.7 C-2.4 69.8 -1.7 69.9 -1 70 C1.2 73.4 1.2 73.9 0.7 77.8 C0.6 78.6 0.5 79.5 0.3 80.4 C0.2 81.3 0.1 82.1 0 83 C-0.1 83.6 -0.1 83.6 -0.4 86.9 C-1 90.2 -1.7 91.6 -4 94 C-6.4 94.6 -6.4 94.6 -9.1 94.8 C-9.6 94.9 -9.6 94.9 -12.2 95.1 C-13.3 95.1 -14.3 95.2 -15.4 95.2 C-16 95.3 -16 95.3 -18.6 95.5 C-39.4 96.9 -39.4 96.9 -48 93 C-47.1 84.5 -46 76.2 -43.9 67.9 C-42.7 62.7 -41.6 57.4 -40.6 52.2 C-38.8 43.8 -37 35.4 -34.8 27.1 C-34.1 24.4 -33.5 21.7 -33 19 C-32.4 15.9 -31.7 12.8 -31.1 9.8 C-30.9 8.9 -30.7 8.1 -30.5 7.2 C-30.1 5.1 -29.6 3.1 -29 1 C-20.8 -3.1 -8.9 -0.7 0 0 Z " fill="#78dc28" transform="translate(385,15)"/><path d="M0 0 C4.4 0.5 8.8 0.2 13.2 0 C16.3 0.3 16.3 0.3 18.2 1.6 C21.8 7.1 18.3 17.3 17.3 23.3 C17.2 23.7 17.2 23.7 16.8 26.1 C16.1 30 15.2 33.6 13.7 37.3 C12.3 40.9 11.8 44.1 11.6 47.9 C11.3 50.4 10.6 52.7 9.9 55.1 C8.6 59.8 7.7 64.6 6.7 69.3 C6.5 70.4 6.3 71.5 6.1 72.6 C4.4 80.5 4.4 80.5 3.8 84.4 C2.3 93.3 2.3 93.3 0.3 95.3 C-4.3 95.6 -8.9 95.6 -13.6 95.7 C-14.9 95.7 -16.2 95.7 -17.5 95.8 C-18.8 95.8 -20 95.8 -21.3 95.8 C-21.9 95.8 -21.9 95.8 -24.8 95.9 C-27.7 95.3 -27.7 95.3 -29.6 92.9 C-30.9 89.7 -30.7 88.6 -29.7 85.3 C-28.5 80.6 -27.5 76.1 -26.8 71.3 C-26.1 66.9 -25 62.9 -23.4 58.6 C-22.3 54.8 -21.8 51 -21.2 47.1 C-20.6 43.7 -19.7 40.5 -18.7 37.3 C-17.6 32.2 -16.6 27 -15.7 21.9 C-15.7 21.4 -15.7 21.4 -15.2 19.2 C-14.9 17.4 -14.6 15.5 -14.3 13.7 C-13.4 9 -12.7 5.1 -9.7 1.3 C-6.2 -0.8 -3.9 -0.8 0 0 Z " fill="#78dc28" transform="translate(416.69921875,14.71875)"/><path d="M0 0 C1.4 4.6 0.4 8.2 -1.1 12.7 C-1.3 13.4 -1.5 14.1 -1.8 14.8 C-3.4 19.8 -5.6 24.2 -8.5 28.6 C-10.1 31.2 -11.5 33.9 -12.9 36.8 C-15.1 41.3 -17.5 45.7 -20.1 50.1 C-27.5 62.9 -27.5 62.9 -29 67 C-28.8 67.3 -28.8 67.3 -28 69 C-27.2 69 -26.5 69 -25.7 68.9 C-25.2 68.9 -25.2 68.9 -22.6 68.9 C-21.6 68.9 -20.6 68.8 -19.6 68.8 C-17 69 -17 69 -15 71 C-14.9 72.9 -14.9 72.9 -15.2 75.2 C-15.3 75.9 -15.3 76.7 -15.4 77.4 C-16.2 80.8 -17.6 83.8 -19 87 C-24.2 87.2 -29.4 87.4 -34.6 87.5 C-36.4 87.6 -38.1 87.7 -39.9 87.7 C-42.4 87.8 -45 87.9 -47.5 88 C-48.3 88 -49.1 88 -49.9 88.1 C-53.8 88.2 -56.7 88.2 -60 86 C-58.7 71.2 -49.3 56.8 -41.9 44.2 C-36.7 35.3 -32.3 26.7 -29 17 C-29.9 17 -30.7 17 -31.6 17 C-32.7 17 -33.8 17.1 -34.9 17.1 C-36 17.1 -37.1 17.1 -38.3 17.1 C-41 17 -41 17 -42 16 C-40.9 2.9 -40.9 2.9 -38 0 C-35.6 -0.2 -33.3 -0.3 -30.9 -0.4 C-30.5 -0.4 -30.5 -0.4 -28.7 -0.4 C-27.2 -0.5 -25.6 -0.5 -24.1 -0.6 C-21.8 -0.6 -19.4 -0.7 -17.1 -0.8 C-15.6 -0.8 -14.2 -0.9 -12.7 -0.9 C-12 -0.9 -11.3 -1 -10.6 -1 C-6.9 -1.1 -3.6 -0.9 0 0 Z " fill="#78dc28" transform="translate(487,19)"/><path d="M0 0 C1.1 -0 2.2 -0 3.3 -0.1 C4.2 -0.1 5.1 -0.1 6.1 -0.1 C8.3 0.1 8.3 0.1 10.3 2.1 C10.8 7.5 10 12.3 7.3 17.1 C3.3 19.8 -1.1 19.2 -5.7 19.1 C-7.1 23.4 -8 27.6 -8.6 32.1 C-9.3 36.9 -10.3 41.4 -11.6 46.1 C-13.8 54 -15.3 62 -16.8 70 C-16.9 70.9 -17.1 71.7 -17.2 72.5 C-17.6 74.3 -17.9 76.1 -18.2 77.8 C-18.3 78.7 -18.5 79.6 -18.6 80.5 C-18.8 81.3 -18.9 82.1 -19 83 C-19.8 85.5 -20.6 86.5 -22.7 88.1 C-24.9 88.4 -24.9 88.4 -27.3 88.4 C-27.8 88.4 -27.8 88.4 -30 88.4 C-31 88.4 -31.9 88.4 -32.8 88.3 C-33.8 88.3 -34.7 88.3 -35.7 88.3 C-42.6 88.2 -42.6 88.2 -43.7 87.1 C-43.2 82.1 -42.1 77.3 -41 72.5 C-38.8 62.7 -36.8 52.9 -34.8 43 C-34.6 41.8 -34.3 40.6 -34.1 39.4 C-33.9 38.3 -33.6 37.2 -33.4 36.1 C-32.7 33 -31.7 30.1 -30.7 27.1 C-30.3 24.8 -30.3 24.8 -30.1 22.7 C-30 21.5 -29.8 20.3 -29.7 19.1 C-30.3 19.1 -30.9 19.1 -31.6 19.2 C-32 19.2 -32 19.2 -34 19.2 C-34.4 19.2 -34.4 19.2 -36.4 19.3 C-38.7 19.1 -38.7 19.1 -41.7 17.1 C-41.4 15 -41.1 12.9 -40.8 10.8 C-40.7 9.6 -40.5 8.4 -40.3 7.2 C-39.7 4.1 -39.7 4.1 -37.7 1.1 C-35.2 0.7 -33 0.6 -30.5 0.6 C-30.1 0.6 -30.1 0.6 -28.3 0.5 C-26 0.5 -23.7 0.4 -21.3 0.4 C-19.8 0.4 -18.3 0.3 -16.8 0.3 C-13.1 0.2 -9.4 0.2 -5.7 0.1 C-3.8 0.1 -1.9 0 0 0 Z " fill="#78dc28" transform="translate(203.7080078125,17.91162109375)"/><path d="M0 0 C4.5 2.3 7.7 5.7 9.8 10.2 C10.5 13.8 10.4 17.2 10.3 20.8 C10.3 21.3 10.3 21.3 10.3 23.7 C10.2 28.3 9.9 32 7.8 36.2 C7.8 37.2 7.8 38.3 7.8 39.3 C7.8 42.2 7.8 42.2 5.8 45.2 C3.5 45.5 3.5 45.5 0.6 45.4 C-0.5 45.4 -1.5 45.4 -2.6 45.4 C-3.1 45.4 -3.1 45.4 -5.9 45.3 C-19 44.9 -19 44.9 -24.2 47.2 C-24.5 48.9 -24.8 50.5 -25.2 52.2 C-24.4 52.2 -23.7 52.2 -22.9 52.2 C-19.5 52.1 -16.2 52.1 -12.8 52.1 C-11.6 52.1 -10.4 52.1 -9.2 52 C-8.7 52 -8.7 52 -5.8 52 C-4.8 52 -3.8 52 -2.7 52 C-0.2 52.2 -0.2 52.2 1.8 54.2 C2.9 65.2 -0.1 78.3 -6.6 87.2 C-11.1 92.3 -15.8 93.7 -22.2 95.2 C-23 95.6 -23.9 96 -24.8 96.3 C-31.8 98.9 -38.2 98.1 -45.3 96.7 C-46.2 96.5 -47 96.4 -47.9 96.2 C-52.7 95.3 -56.9 94.1 -60.1 90.4 C-62.6 85.3 -61.9 79.3 -61.8 73.8 C-61.8 72.4 -61.8 71.1 -61.7 69.7 C-61.5 60.3 -60.3 52.1 -57.2 43.2 C-56.8 41.7 -56.4 40.1 -56.1 38.5 C-54.9 33.1 -53.6 27.6 -52.2 22.2 C-52 21.4 -51.8 20.6 -51.6 19.8 C-49.8 13.2 -46.1 8.9 -41.2 4.2 C-40.6 3.7 -40 3.1 -39.4 2.6 C-33.9 -1.7 -27.4 -1.5 -20.7 -1.6 C-6.2 -2.2 -6.2 -2.2 0 0 Z M-34.2 6.2 C-35.2 6.8 -36.3 7.4 -37.4 8 C-51.5 19.2 -52.6 40.5 -55.6 57.1 C-56 59.2 -56.4 61.3 -56.7 63.3 C-56.9 64.3 -57.1 65.2 -57.3 66.2 C-57.5 67.1 -57.6 68 -57.8 68.8 C-58.9 75.9 -58.3 81.8 -54.5 87.9 C-50.6 91.8 -46.6 93.1 -41.3 93.6 C-30.1 93.6 -21.5 93.1 -13 85.1 C-8.8 80.6 -6.3 76.7 -4.5 70.8 C-4.3 70.1 -4.1 69.5 -3.8 68.8 C-2.6 65 -1.7 61.2 -1.2 57.2 C-5 54.7 -8.8 55 -13.2 55 C-13.6 55 -13.6 55 -15.4 55 C-18.6 55.1 -21.1 55.2 -24.2 56.2 C-24.3 56.8 -24.4 57.5 -24.5 58.1 C-26.9 70.8 -26.9 70.8 -29.2 75.2 C-31.9 76.8 -31.9 76.8 -34.2 77.2 C-35.5 73.4 -34.8 71.1 -34 67.2 C-33.8 66.5 -33.7 65.8 -33.6 65 C-32.1 57.4 -30.4 49.9 -28.6 42.3 C-28.1 40 -27.6 37.7 -27 35.3 C-26.7 33.8 -26.4 32.3 -26 30.8 C-25.9 30.1 -25.7 29.4 -25.5 28.7 C-24.7 25.1 -23.7 21.7 -22.2 18.2 C-20.8 18.2 -19.5 18.2 -18.2 18.2 C-18 24.4 -18.5 29.9 -19.8 35.9 C-20.2 38.2 -20.2 38.2 -19.2 40.2 C-16.4 40.4 -13.7 40.6 -11 40.8 C-10.2 40.9 -9.4 41 -8.7 41 C-0.4 41.6 -0.4 41.6 2.8 39.2 C4.7 33.8 5.3 28.3 5.7 22.6 C5.8 21.9 5.9 21.1 5.9 20.4 C6.3 15.1 5.3 12.4 1.8 8.2 C-3.7 3 -9.5 1.8 -17 1.8 C-17.3 1.8 -17.3 1.8 -19.1 1.8 C-25 2 -29.2 3.2 -34.2 6.2 Z " fill="#fff" transform="translate(143.16796875,14.78125)"/><path d="M0 0 C0.8 -0 1.7 -0 2.6 -0 C9.3 -0.1 15.8 0.9 21.4 5 C26.4 11.9 27.6 16.8 26.4 25.2 C26.3 25.7 26.3 25.7 26.1 27.8 C25.8 29.5 25.6 31.2 25.4 32.8 C25 36 24.7 39.2 24.4 42.4 C24.1 44.3 24.1 44.3 22.1 47.3 C19.6 47.6 19.6 47.6 16.6 47.6 C16 47.6 16 47.6 13.2 47.5 C12.1 47.5 10.9 47.5 9.8 47.4 C7.5 47.4 5.2 47.4 2.9 47.3 C2.4 47.3 2.4 47.3 -0.1 47.2 C-2.8 47.3 -5.3 47.7 -7.9 48.3 C-7.9 49.6 -7.9 51 -7.9 52.3 C-5.2 53.7 -3.1 53.4 0 53.3 C4.4 53.3 8.8 53.3 13.2 53.6 C14.1 53.6 15 53.7 15.9 53.7 C18.1 54.3 18.1 54.3 19.4 56.1 C20.6 59.9 19.9 63.8 18.1 67.3 C17 69.4 16.7 71.1 16.3 73.4 C14.7 81 10.8 88.1 5.1 93.3 C3.4 94.4 1.8 95.4 0.1 96.3 C-0.9 97 -1.9 97.6 -2.9 98.3 C-5.9 98.7 -5.9 98.7 -9.5 98.9 C-13.7 99.1 -17.8 99.4 -21.9 100.2 C-28.7 100.9 -37.4 98 -42.8 93.9 C-46.4 89 -46.8 80.3 -46.9 74.3 C-46.8 74.1 -46.8 74.1 -45.9 73.3 C-45.5 70.2 -45.1 67 -44.8 63.9 C-44.4 60.3 -44 58.3 -41.9 55.3 C-41.4 52.5 -40.9 49.8 -40.4 47 C-39.6 41.9 -38.6 37.2 -36.9 32.3 C-36.6 30.7 -36.3 29.1 -36.1 27.5 C-34.3 18.6 -30.7 10.6 -23.3 5.1 C-16 0.5 -8.3 -0 0 0 Z M-23.2 11.7 C-31.9 20.1 -33.8 31.6 -35.8 43.2 C-36.5 47.3 -37.4 51.3 -38.5 55.3 C-41.1 64.9 -44.4 77.4 -40.6 87.1 C-37.6 91.6 -33.1 93.9 -27.9 95.3 C-17.2 96.6 -6 95.4 2.9 88.8 C10 81.9 13.8 70.9 15.1 61.3 C14.9 60.7 14.9 60.7 14.1 57.3 C7.1 57.3 0.2 57.3 -6.9 57.3 C-9.2 63.3 -10.8 68.6 -12.2 74.8 C-12.9 77.3 -12.9 77.3 -14.9 79.3 C-15.9 79.3 -16.9 79.3 -17.9 79.3 C-18.4 72.8 -17.4 67.6 -15.6 61.4 C-14.2 56.6 -13.2 51.8 -12.4 46.9 C-11.5 41 -10.3 35.2 -8.8 29.4 C-8.6 28.7 -8.5 28 -8.3 27.3 C-7.7 24.9 -7.1 22.6 -5.9 20.3 C-4.6 20.3 -3.3 20.3 -1.9 20.3 C-1.7 27.8 -2.7 34.9 -3.9 42.3 C-0.8 44.4 -0.1 44.6 3.5 44.5 C4.4 44.5 5.2 44.5 6.1 44.5 C7 44.5 7.8 44.5 8.8 44.4 C9.2 44.4 9.2 44.4 11.5 44.4 C13.7 44.4 15.9 44.4 18.1 44.3 C21.1 36.7 22.2 29.9 22.4 21.7 C22.4 20.4 22.4 19.1 22.5 17.8 C22 13.7 21 12.2 18.1 9.3 C5.6 0.2 -11.4 2.5 -23.2 11.7 Z " fill="#fff" transform="translate(1033.9375,12.6875)"/><path d="M0 0 C2.6 -0 5.3 -0 7.9 -0 C9.6 -0 11.3 -0 13 -0 C13.8 -0.1 14.6 -0.1 15.4 -0.1 C19.2 -0.1 21 0 24.3 2.2 C25.1 9.9 23.2 16.8 21.3 24.2 C20.5 27.7 19.7 31.2 18.9 34.7 C18.3 37.2 18.3 37.2 17.3 38.2 C16.9 40.3 16.6 42.5 16.4 44.6 C14.2 60.5 14.2 60.5 12.3 64.1 C11.1 66.5 10.8 68.6 10.3 71.2 C5.8 88 5.8 88 -0.3 91.8 C-3 93.3 -5.8 94.8 -8.7 96.2 C-9 96.4 -9 96.4 -10.7 97.3 C-19.3 101.1 -30.9 99.2 -39.7 97.2 C-43.8 95.1 -46.6 92.5 -49.7 89.2 C-50 88.9 -50.4 88.5 -50.7 88.2 C-50.8 85.5 -50.8 82.8 -50.8 80.1 C-50.8 79.7 -50.8 79.7 -50.8 77.8 C-50.8 73.2 -50.4 68.8 -49.7 64.2 C-49.6 62.7 -49.4 61.3 -49.3 59.8 C-48.8 55.1 -47.6 50.7 -46.2 46.1 C-44.5 40.4 -43.4 35.1 -42.7 29.2 C-42.1 26.8 -42.1 26.8 -41.4 24.7 C-39.7 19.4 -38.4 14 -37.2 8.5 C-35.9 3.4 -35.9 3.4 -33.7 1.2 C-22.6 -0.3 -11.2 -0 0 0 Z M-32.7 7.2 C-34.4 11.6 -35.3 16.1 -36.1 20.7 C-37.2 26.9 -38.5 32.9 -40 39 C-40.8 42.4 -41.5 45.9 -42.2 49.3 C-43.1 53.5 -44.1 57.7 -45.3 61.8 C-47.8 70.7 -49.1 78.8 -44.7 87.2 C-41.1 92.2 -35.7 93.6 -29.9 94.7 C-19.6 95.9 -12.3 93.7 -3.8 88 C2.4 82.7 4.4 77.9 6.4 70.1 C6.6 69.2 6.9 68.2 7.1 67.2 C9 59.8 10.5 52.3 11.9 44.7 C13.1 37.9 14.7 31.3 16.4 24.7 C19.6 12.2 19.6 12.2 19.3 6.2 C18.3 5.2 18.3 5.2 16.3 5.1 C15.9 5.1 15.9 5.1 13.8 5.1 C13.4 5.1 13.4 5.1 11.1 5.1 C10.2 5.1 9.2 5.1 8.2 5.1 C7.3 5.1 6.3 5.1 5.4 5.1 C3 5.1 0.6 5.2 -1.7 5.2 C-7.2 17.5 -9.3 31 -11.9 44.2 C-16.8 69 -16.8 69 -20.7 78.2 C-21.7 78.2 -22.7 78.2 -23.7 78.2 C-23.2 71.1 -22 64.5 -20.3 57.7 C-18.8 51.7 -17.4 45.8 -16.2 39.8 C-15.7 37 -15.1 34.2 -14.5 31.5 C-14.2 30.5 -14 29.5 -13.8 28.5 C-13.4 26.5 -12.9 24.6 -12.5 22.6 C-11.3 17.1 -10.2 11.8 -9.7 6.2 C-12 3.9 -17.6 5 -20.6 5 C-21.6 5 -22.5 5 -23.5 5 C-24.4 5 -25.3 5 -26.2 5 C-26.6 5 -26.6 5 -28.7 4.9 C-30.7 5.2 -30.7 5.2 -32.7 7.2 Z " fill="#fff" transform="translate(970.704833984375,13.814697265625)"/><path d="M0 0 C0.8 0.1 1.5 0.3 2.3 0.4 C7 1.4 11.1 3.3 15 6 C19.8 14.4 16.3 28 14 37 C13 40.3 12 42 9.8 44.6 C7.5 49 8.1 51.6 8.8 56.4 C9.1 59.7 8.1 61.9 7 65 C6.9 67.3 7 69.6 7.1 71.9 C7 74.4 6.2 75.8 5 78 C4.6 79.6 4.3 81.2 4 82.9 C3.3 86.7 2.5 90.4 1 94 C-1.3 95.2 -2.7 95.1 -5.3 95.1 C-6.1 95.1 -7 95 -7.9 95 C-9.7 95 -11.5 95 -13.3 95 C-17.3 94.9 -21.2 95 -25.3 95.5 C-28.8 96 -31.8 95.9 -35.3 95.5 C-39.7 95.1 -43.6 95.1 -48 95.6 C-51.3 96 -53 96 -56.2 95.1 C-58 93 -58 93 -58.4 89.2 C-58.3 87.8 -58.2 86.4 -58 85 C-57.9 83.8 -57.8 82.6 -57.6 81.4 C-57 78 -57 78 -56.1 75.4 C-54.7 71.1 -53.9 66.8 -53.1 62.4 C-51.8 55.4 -50.1 48.7 -47.8 41.8 C-46.8 38.2 -46.5 34.8 -46.3 31.1 C-45.9 28.3 -44.5 26.4 -43 24 C-42.8 21.3 -42.9 18.7 -43 16 C-42.7 15.7 -42.3 15.3 -42 15 C-41.8 13.6 -41.7 12.2 -41.6 10.8 C-41.2 6.8 -40.6 4.1 -38 1 C-35.3 0.1 -33.5 -0.2 -30.7 -0.3 C-29.8 -0.4 -29 -0.4 -28.1 -0.4 C-27.2 -0.5 -26.3 -0.5 -25.4 -0.6 C-24.6 -0.6 -23.7 -0.6 -22.8 -0.7 C-5.8 -1.5 -5.8 -1.5 0 0 Z M-34 3 C-36.3 6.4 -36.8 9.4 -37.4 13.4 C-38.5 19.4 -39.7 25.3 -41.1 31.3 C-42.1 35.4 -43 39.6 -43.9 43.7 C-44.1 44.5 -44.2 45.3 -44.4 46.1 C-44.9 48.4 -45.4 50.8 -45.9 53.2 C-46.4 55.5 -47 57.9 -47.5 60.3 C-47.8 61.8 -48.1 63.4 -48.5 64.9 C-49.3 69 -50.2 73.1 -51.2 77.2 C-51.4 78 -51.6 78.8 -51.8 79.7 C-52.1 81.3 -52.5 82.9 -52.9 84.5 C-53.3 86.3 -53.7 88.2 -54 90 C-51.6 92.4 -45.7 91.2 -42.6 91.2 C-41.6 91.2 -40.6 91.2 -39.6 91.2 C-39.1 91.2 -39.1 91.2 -36.8 91.2 C-35.9 91.2 -35 91.2 -34.1 91.2 C-32 91 -32 91 -30 89 C-29.3 86.7 -29.3 86.7 -28.6 83.7 C-28.3 82.7 -28.1 81.6 -27.8 80.5 C-27.5 79.3 -27.3 78.2 -27 77.1 C-26.7 76 -26.5 74.9 -26.2 73.8 C-24.6 66.9 -23.2 60 -22 53 C-20.4 53.3 -18.7 53.7 -17 54 C-18.2 62 -19.8 69.8 -21.6 77.7 C-23.5 86.1 -23.5 86.1 -24 90 C-21.7 92.3 -16.7 91.3 -13.6 91.4 C-12.7 91.4 -11.9 91.4 -11 91.5 C-10.1 91.5 -9.3 91.5 -8.4 91.5 C-7.6 91.5 -6.9 91.6 -6.1 91.6 C-4 91 -4 91 -2.3 88.8 C-0.1 84.2 0.7 79.3 1.7 74.3 C1.9 73.3 2.1 72.2 2.4 71.2 C5.7 55.2 5.7 55.2 2.9 49.8 C1.5 47.9 1.5 47.9 -1 45 C-0.3 44.8 0.4 44.6 1.2 44.4 C5.3 42.4 8 39.3 9.8 35.1 C10.5 32.9 11 30.8 11.4 28.7 C11.6 27.9 11.8 27.2 11.9 26.4 C13.4 19.3 12.7 14.6 9.6 8.1 C2.7 2.5 -9.1 3.5 -17.5 3.3 C-19.6 3.2 -21.6 3.1 -23.7 3 C-25 2.9 -26.3 2.9 -27.6 2.9 C-28.2 2.8 -28.2 2.8 -31.2 2.7 C-31.7 2.8 -31.7 2.8 -34 3 Z " fill="#fff" transform="translate(600,15)"/><path d="M0 0 C3.8 3.1 5.6 6.8 6.8 11.5 C6.9 14.6 6.4 17.4 5.8 20.5 C5.8 21.5 5.9 22.5 5.9 23.5 C5.8 28.4 5.4 33.9 1.8 37.5 C1.1 39.1 0.5 40.8 -0.2 42.5 C-0.5 42.8 -0.8 43.1 -1.2 43.5 C-1.2 45.3 -1.1 47.2 -1.1 49 C-1 60 -3 71 -6.5 81.4 C-7.2 83.4 -7.6 85.4 -8.1 87.5 C-9.2 90.5 -9.2 90.5 -11.4 91.7 C-14.5 92.6 -17.2 92.7 -20.5 92.6 C-21.7 92.6 -22.9 92.6 -24.2 92.6 C-25.4 92.6 -26.7 92.6 -28 92.5 C-42 92.4 -42 92.4 -46.5 93 C-50.8 93.6 -54.4 93.2 -58.6 92.6 C-59 92.6 -59 92.6 -60.8 92.3 C-66 91.6 -66 91.6 -67.2 90.5 C-67.5 83.7 -66.5 77.2 -65.4 70.5 C-65.2 69.5 -65 68.5 -64.9 67.4 C-63.9 61.9 -62.8 56.7 -60.9 51.4 C-59 46.3 -58.1 41.2 -57.5 35.7 C-56.9 32 -55.9 28.4 -55 24.7 C-52.8 16.3 -51 8.1 -50.2 -0.5 C-49.8 -1.2 -49.5 -1.8 -49.2 -2.5 C-48.6 -2.5 -48.6 -2.5 -45.6 -2.5 C-44 -2.5 -42.4 -2.5 -40.9 -2.5 C-40.5 -2.4 -40.5 -2.4 -38.5 -2.4 C-38.1 -2.4 -38.1 -2.4 -36.2 -2.4 C-35.8 -2.4 -35.8 -2.4 -34.1 -2.4 C-8 -4 -8 -4 0 0 Z M-44.2 1.5 C-48.7 13 -51.3 24.9 -53.1 37.1 C-54.6 46.7 -57 56.1 -59.3 65.6 C-60 68.2 -60.6 70.8 -61.2 73.5 C-61.4 74.4 -61.6 75.3 -61.8 76.2 C-62 77.1 -62.2 77.9 -62.4 78.8 C-62.5 79.2 -62.5 79.2 -62.9 81.2 C-63.2 83.8 -62.8 85.9 -62.2 88.5 C-47.2 90.3 -47.2 90.3 -42.2 88.5 C-41 86.6 -41 86.6 -40.2 84.5 C-39.8 83.8 -39.5 83.2 -39.2 82.5 C-39 81.1 -38.9 79.8 -38.8 78.4 C-38.4 74.4 -37.4 70.9 -36 67.1 C-34.3 61.7 -33.3 56.1 -32.2 50.5 C-30.9 50.8 -29.5 51.1 -28.2 51.5 C-28.6 59.2 -29.7 66.6 -31.5 74.2 C-32.5 79 -33.2 83.6 -33.2 88.5 C-30.1 88.5 -26.9 88.6 -23.8 88.6 C-23.4 88.6 -23.4 88.6 -21.1 88.7 C-20.7 88.7 -20.7 88.7 -18.5 88.7 C-18.1 88.7 -18.1 88.7 -16.1 88.7 C-14.2 88.5 -14.2 88.5 -12.2 86.5 C-10.9 82.4 -10 78.2 -9 74 C-8.5 71.9 -8 69.8 -7.5 67.8 C-4.4 55.1 -4.4 55.1 -6.2 48.5 C-8.2 46.1 -8.2 46.1 -10.2 44.5 C-10.2 43.8 -10.2 43.2 -10.2 42.5 C-9.3 41.9 -8.4 41.3 -7.4 40.7 C-0.9 36.2 0.6 30.7 2 23.2 C3.7 13 3.7 13 1.8 8.5 C-2 3.9 -5.8 1.7 -11.8 1.1 C-13.3 1 -14.7 0.9 -16.2 0.9 C-17 0.8 -17.8 0.8 -18.6 0.7 C-27.2 0.3 -35.6 0.8 -44.2 1.5 Z " fill="#fff" transform="translate(779.17578125,17.515625)"/><path d="M0 0 C5.7 -0.1 11.3 -0.1 17 -0.2 C18.9 -0.2 20.8 -0.2 22.8 -0.2 C25.5 -0.3 28.3 -0.3 31.1 -0.3 C31.5 -0.3 31.5 -0.3 33.7 -0.3 C36.1 -0.3 36.1 -0.3 40 0 C42.5 3.7 42.1 5.1 41.8 9.5 C41.7 10.8 41.6 12.1 41.5 13.4 C41.4 14.8 41.3 16.2 41.2 17.6 C41.1 18.9 41 20.3 40.9 21.6 C40.5 27.2 40 32.7 39.5 38.3 C38.8 44.3 38.6 50.4 38.4 56.4 C38.2 60.2 38 63.9 37.5 67.7 C37 71.3 36.9 74.8 37 78.5 C37.1 83.5 37 88.1 36 93 C34 95 34 95 31.5 95.2 C30.4 95.2 29.4 95.2 28.3 95.2 C27.2 95.2 26 95.2 24.9 95.2 C23.7 95.2 22.5 95.2 21.2 95.2 C20.1 95.2 18.9 95.2 17.7 95.2 C8.8 95.1 8.8 95.1 4.7 94.4 C2 94 2 94 0 95 C-3.3 95.1 -6.6 95 -9.8 94.9 C-13 95 -13 95 -15 95.6 C-17.9 96.2 -20.3 95.6 -23.2 95.1 C-23.7 95 -23.7 95 -26.4 94.6 C-29 94 -29 94 -30 93 C-29.5 85.2 -26.8 77.5 -23.9 70.4 C-23 68.1 -22.6 66.1 -22.1 63.7 C-21.3 59.7 -19.9 56.5 -17.9 52.9 C-16.5 50.1 -15.8 47.1 -15 44 C-13.9 40.4 -12.6 37 -11.1 33.5 C-8.9 28.1 -7.4 22.6 -5.9 17 C-5 14 -5 14 -3 11 C-2.4 8.8 -2.4 8.8 -1.9 6.4 C-1.5 4.1 -1.1 2.2 0 0 Z M14.1 2.8 C10.8 2.8 8.1 2.9 5 4 C2.2 6.9 1.2 10.1 0 14 C-0.2 14.5 -0.2 14.5 -1.1 17.3 C-1.8 19.5 -2.4 21.7 -3.1 24 C-4 27 -5.1 30 -6.2 32.9 C-7.2 35.5 -8.1 38.2 -8.9 40.9 C-10.2 44.7 -11.5 48.4 -13.1 52.1 C-14.3 55.2 -15.4 58.2 -16.3 61.4 C-18.5 69.1 -21.5 76.6 -24.3 84.1 C-24.9 85.7 -25.5 87.4 -26 89 C-23 92 -14.1 91 -10 91.1 C-7.7 91.1 -5.3 91 -3 91 C-2.7 90.3 -2.5 89.7 -2.2 89 C-0.5 84.7 1.3 80.3 3 76 C5 76 7 76 9 76 C9.1 80.8 9 85.3 8 90 C9.7 91.7 11.6 91.1 13.9 91.1 C14.9 91.1 15.8 91.1 16.9 91.1 C17.4 91.1 17.4 91.1 20 91.1 C21 91.1 22.1 91.1 23.1 91.1 C24.1 91.1 25.1 91.1 26.1 91.1 C26.6 91.1 26.6 91.1 28.9 91.1 C31 91 31 91 32 90 C32.1 88.7 32.2 87.3 32.3 86 C32.3 85.1 32.4 84.3 32.4 83.5 C32.4 82.6 32.5 81.7 32.5 80.8 C32.6 79.1 32.6 77.4 32.7 75.7 C32.7 74.9 32.8 74.2 32.8 73.4 C33 71 33 71 33.5 68.1 C34 64.9 34.2 61.7 34.3 58.4 C34.3 57.2 34.4 56 34.4 54.7 C34.5 52.1 34.5 49.6 34.6 47 C34.6 45.8 34.7 44.6 34.7 43.3 C34.7 42.2 34.8 41.1 34.8 39.9 C35 37.4 35.3 35.4 36 33 C37 23.7 37.5 14.3 37 5 C34.1 2.1 24.4 3.2 20.3 3.1 C18.3 3 16.2 2.9 14.1 2.8 Z " fill="#fff" transform="translate(38,15)"/><path d="M0 0 C6.5 1 13.1 0.5 19.7 0.4 C20.2 0.4 20.2 0.4 22.8 0.4 C23.8 0.3 24.7 0.3 25.7 0.3 C28.1 0.5 28.1 0.5 31.1 2.5 C31.5 4.7 31.5 4.7 31.5 7.4 C31.5 8.4 31.4 9.4 31.4 10.4 C31.4 11.4 31.4 12.4 31.4 13.4 C31.4 14.5 31.4 15.5 31.4 16.5 C31.3 24 31.3 24 30.1 27.5 C30 29 29.9 30.4 29.8 31.8 C29.8 32.3 29.8 32.3 29.7 34.5 C29.7 35.4 29.7 36.4 29.6 37.3 C29.6 37.8 29.6 37.8 29.5 40.3 C29.3 45.2 29.1 50.1 28.9 55 C28.5 68.6 27 82 25.1 95.5 C21.6 95.7 18.1 95.9 14.6 96.1 C14.1 96.1 14.1 96.1 11.7 96.2 C5.3 96.6 -0.8 96.7 -7.1 94.9 C-8.9 94.5 -8.9 94.5 -11.1 95 C-13.9 95.5 -16.6 95.7 -19.4 95.8 C-20.4 95.9 -21.4 95.9 -22.5 96 C-23.5 96 -24.6 96 -25.7 96.1 C-26.8 96.1 -27.8 96.2 -28.9 96.2 C-31.6 96.3 -34.2 96.4 -36.9 96.5 C-39.4 93.3 -39.9 91.8 -39.7 87.7 C-39 83.6 -37.6 79.9 -35.9 76.1 C-33.9 71.3 -32.4 66.7 -31.4 61.6 C-30.5 58.1 -28.7 55.1 -27 51.9 C-25.5 48.8 -25.2 45.9 -24.9 42.5 C-24.2 41.5 -23.6 40.5 -22.9 39.5 C-21.8 36.5 -20.8 33.5 -19.9 30.5 C-18.8 27.4 -17.8 24.3 -16.8 21.3 C-15.7 18.2 -14.7 15.1 -13.8 12 C-13.5 10.9 -13.1 9.9 -12.8 8.8 C-12.5 7.8 -12.2 6.9 -12 5.9 C-10.4 2.6 -8.4 1.1 -5.1 -0.2 C-2.9 -0.5 -2.9 -0.5 0 0 Z M-6.2 6.4 C-7.7 9.1 -8.8 11.7 -9.7 14.6 C-11.5 20.4 -13.4 26.1 -15.4 31.8 C-15.7 32.7 -16 33.5 -16.3 34.4 C-17.6 38.1 -18.9 41.7 -20.5 45.3 C-22 48.9 -22.7 52.2 -23.2 56.1 C-23.9 58.5 -23.9 58.5 -25.2 60.7 C-27.7 64.9 -29 69.3 -30.4 73.9 C-30.6 74.4 -30.6 74.4 -31.4 76.8 C-31.9 78.6 -32.5 80.3 -33.1 82.1 C-34 84.9 -34.9 87.7 -35.9 90.5 C-33.5 92.9 -27.8 92.2 -24.6 92.4 C-23.6 92.5 -22.6 92.6 -21.6 92.7 C-18.9 92.9 -16.5 93 -13.9 92.5 C-10.8 89.3 -9.4 85.9 -8.1 81.6 C-8 81.2 -8 81.2 -7.4 79.3 C-7.2 78.7 -7 78.1 -6.9 77.5 C-4.9 77.5 -2.9 77.5 -0.9 77.5 C-1 78.4 -1 79.4 -1.1 80.3 C-1.2 81.5 -1.3 82.7 -1.4 83.9 C-1.5 85.1 -1.6 86.3 -1.8 87.6 C-1.8 88.5 -1.8 89.5 -1.9 90.5 C-0.2 92.2 1.7 91.6 4 91.6 C5 91.6 6 91.6 7 91.6 C7.5 91.6 7.5 91.6 10.1 91.6 C11.2 91.6 12.2 91.6 13.3 91.6 C14.3 91.6 15.2 91.6 16.3 91.6 C16.7 91.6 16.7 91.6 19 91.6 C21.1 91.5 21.1 91.5 22.1 90.5 C22.4 87.5 22.7 84.6 22.8 81.6 C22.9 80.7 23 79.8 23 78.8 C23.2 75.9 23.4 73 23.6 70 C23.8 68.1 23.9 66.2 24 64.2 C25 49.6 25 49.6 25.4 42.5 C25.5 41.7 25.5 40.9 25.5 40.1 C25.7 38.1 25.8 36 25.9 33.9 C26.1 31 26.5 28.4 27.1 25.5 C27.2 23.9 27.3 22.3 27.3 20.7 C27.3 19.8 27.3 18.9 27.3 18 C27.3 17.6 27.3 17.6 27.3 15.3 C27.3 14.3 27.3 13.4 27.3 12.5 C27.3 11.6 27.3 10.7 27.3 9.8 C27.3 9.4 27.3 9.4 27.3 7.4 C27.1 5.5 27.1 5.5 26.1 4.5 C21.9 4.1 17.7 3.9 13.5 3.7 C12 3.6 10.6 3.5 9.2 3.4 C7.1 3.3 5.1 3.2 3 3.1 C1.8 3 0.6 3 -0.7 2.9 C-3.9 3.5 -3.9 3.5 -6.2 6.4 Z " fill="#fff" transform="translate(307.87109375,14.48828125)"/><path d="M0 0 C1 -0 1.9 -0 2.9 -0.1 C10.2 -0.1 14.9 1 20.9 5.2 C26.3 12.6 25.9 23.5 25.1 32.2 C24.5 35.1 23.7 37.8 22.9 40.6 C21.9 44.1 21.6 47.5 21.4 51.2 C21.1 53.2 21.1 53.2 19.1 56.2 C18.6 58.1 18.6 58.1 18.2 60.3 C18.2 60.7 18.2 60.7 17.8 62.7 C17.6 63.5 17.5 64.3 17.3 65.2 C13.4 84.9 13.4 84.9 5.1 91.2 C4.6 92 4.1 92.7 3.6 93.4 C0.3 97.6 -6 98 -11.1 98.7 C-14.3 98.9 -17.6 99.1 -20.9 99.2 C-21.8 99.3 -22.7 99.4 -23.7 99.4 C-32.1 99.7 -37.9 97 -44.2 91.4 C-47.3 87.4 -46.8 83.2 -46.5 78.4 C-46.5 77.4 -46.5 76.5 -46.4 75.5 C-46.3 69.6 -45.4 64 -43.9 58.2 C-43.6 57.2 -43.4 56.2 -43.1 55.2 C-42.9 54.3 -42.6 53.4 -42.4 52.4 C-41.1 47.3 -40.2 42.2 -39.4 36.9 C-38.9 34.2 -37.9 31.8 -36.9 29.2 C-36.6 27.8 -36.3 26.4 -36 24.9 C-34.2 16.7 -30.5 10.5 -23.9 5.2 C-16.2 0.4 -8.9 0 0 0 Z M-21.9 10.2 C-23.3 11.9 -24.6 13.5 -25.7 15.4 C-26.9 17.2 -26.9 17.2 -28.8 19.4 C-31.2 22.7 -31.9 25.2 -32.9 29.1 C-33.1 29.7 -33.2 30.4 -33.4 31 C-33.9 33.1 -34.4 35.2 -34.9 37.2 C-35.2 38.6 -35.5 39.9 -35.8 41.2 C-36.7 44.6 -37.4 47.9 -38.2 51.2 C-38.5 52.6 -38.8 53.9 -39.1 55.3 C-44.8 79.2 -44.8 79.2 -40 87.5 C-35.2 93.6 -30 95.2 -22.5 96.2 C-13.3 96.4 -3.7 93.6 3.3 87.5 C9.6 79.8 12.2 69.8 14.1 60.2 C14.4 59.1 14.6 57.9 14.9 56.7 C15.6 52.9 16.4 49.1 17.1 45.2 C17.7 42.5 18.2 39.7 18.8 36.9 C19 35.7 19.2 34.5 19.5 33.2 C20.1 30.2 20.1 30.2 21.1 28.2 C21.8 22.2 21.2 16.6 18.1 11.2 C13.4 5.8 7.6 3.9 0.6 3.3 C-7.6 3.2 -15.3 5.2 -21.9 10.2 Z " fill="#fff" transform="translate(1161.875,12.75)"/><path d="M0 0 C0.4 0 0.4 0 2.5 0.2 C2.9 0.2 2.9 0.2 5.1 0.4 C10.6 0.9 15.3 1 20.8 0 C21.8 0.4 22.7 0.7 23.8 1 C25.6 1 27.5 1 29.3 0.9 C35.2 0.9 40.5 1.4 45.8 4 C50.8 9.7 51 15.6 51 22.9 C51 23.6 51.1 24.3 51.1 25 C51.1 30 49.9 33.4 47.8 38 C47.3 40.7 47.3 40.7 47.1 43.2 C47.1 44 47 44.9 46.9 45.7 C46.9 46.5 46.8 47.3 46.8 48 C46.4 50.7 46 52.6 44.8 54.9 C43.6 57.3 43.5 59.2 43.3 61.9 C42.9 66.5 41.6 69.8 39.8 74 C39.5 75.7 39.3 77.3 39.1 78.9 C38 85.1 34.4 89 29.8 93 C25.4 95.6 21 95.8 16.1 96.2 C15.1 96.3 14.2 96.4 13.3 96.5 C6.5 97.1 -0 97 -6.7 96.4 C-9.8 96.1 -12.3 96 -15.3 96.6 C-19 97.1 -21.7 96.2 -25.2 95 C-25.1 92.5 -25 89.9 -24.9 87.3 C-24.8 86.9 -24.8 86.9 -24.8 85.1 C-24.6 81.2 -24 78.5 -22.2 75 C-21.7 72.4 -21.2 69.7 -20.8 67 C-19.8 60.9 -18.5 54.9 -16.9 48.8 C-16.2 46 -15.7 43.2 -15.2 40.4 C-14.7 37 -13.9 33.8 -12.7 30.6 C-11.1 26.1 -10.4 21.6 -9.8 16.8 C-9.2 14 -8.3 11.7 -7.2 9 C-7.3 8 -7.3 7 -7.3 5.9 C-7.2 3 -7.2 3 -6 1.4 C-3.8 -0.3 -2.7 -0.2 0 0 Z M4.2 4 C2.1 4.1 2.1 4.1 -1.2 5 C-2.9 7.6 -3.5 9.2 -4.2 12 C-4.4 12.7 -4.6 13.4 -4.7 14 C-5.3 16.2 -5.7 18.4 -6.1 20.6 C-6.5 22.3 -6.8 24 -7.1 25.7 C-7.3 26.6 -7.5 27.5 -7.7 28.4 C-8.6 32.7 -9.6 36.9 -10.6 41.2 C-12.6 50.2 -14.6 59.2 -16.6 68.3 C-16.9 69.8 -17.2 71.3 -17.5 72.7 C-18 74.8 -18.4 76.9 -18.9 79 C-19 79.6 -19 79.6 -19.7 82.7 C-20.2 85.9 -20.3 88.8 -20.2 92 C-14.7 92.1 -9.2 92.2 -3.6 92.3 C-1.8 92.3 0.1 92.3 2 92.3 C4.7 92.4 7.4 92.4 10.1 92.4 C11 92.5 11.8 92.5 12.6 92.5 C20.1 92.5 26.1 90.5 31.6 85.4 C36.1 78.4 37.1 71.3 38.2 63.2 C38.9 59.5 39.9 56 41.1 52.3 C42.1 48.9 42.4 45.6 42.8 42 C43.1 41.7 43.4 41.4 43.8 41 C48.8 17.8 48.8 17.8 45.6 12 C42.4 7.9 39.8 6.5 34.8 5 C31.6 4.7 31.6 4.7 28.3 4.6 C27.1 4.5 25.9 4.5 24.7 4.5 C23.4 4.4 22.2 4.4 20.9 4.4 C19.6 4.3 18.4 4.3 17.1 4.2 C12.8 4.1 8.5 4.1 4.2 4 Z " fill="#fff" transform="translate(872.23828125,13.9609375)"/><path d="M0 0 C11.8 0.6 23.6 0.7 35.4 0.6 C38.8 6.9 37.1 13.9 35.3 20.6 C34 24.1 33.7 24.4 30.1 26.2 C26.6 26.5 23.9 26.2 20.4 25.6 C16.5 40.5 16.5 40.5 15.5 47.9 C14.7 54 13.1 59.7 11.3 65.5 C9.5 71.8 8.4 78.1 7.6 84.6 C7 89.4 5.8 92.2 2.4 95.6 C-0.5 97.1 -3.3 96.7 -6.6 96.6 C-6.7 96.4 -6.7 96.4 -7.6 95.6 C-11 95.5 -14.3 95.6 -17.7 95.7 C-19.7 95.7 -21.6 95.6 -23.6 95.6 C-26 93.1 -26.3 91.2 -26.7 87.9 C-26.5 84.3 -25 81.6 -23.6 78.4 C-22 74 -21.6 69.5 -21.1 64.9 C-20.6 62 -20 59.5 -19.1 56.8 C-17.6 52.2 -16.8 47.6 -15.9 42.9 C-15.8 42.2 -15.7 41.5 -15.6 40.8 C-14.8 36.1 -14.1 31.3 -13.6 26.6 C-14.2 26.4 -14.8 26.3 -15.5 26.2 C-16.3 26 -17.1 25.8 -18 25.6 C-18.4 25.5 -18.4 25.5 -20.5 25.1 C-22.6 24.6 -22.6 24.6 -23.6 23.6 C-24.4 15.4 -23.1 7.4 -18.6 0.6 C-12.4 -0.9 -6.3 -0.3 0 0 Z M-15.6 4.6 C-17.8 7.9 -18.2 10.2 -18.8 14.2 C-18.9 15.4 -19.1 16.5 -19.3 17.7 C-19.4 18.7 -19.5 19.6 -19.6 20.6 C-17.9 22.2 -15.8 21.9 -13.5 22.1 C-12.6 22.2 -11.7 22.3 -10.7 22.4 C-10.4 22.4 -10.4 22.4 -8.6 22.6 C-9.1 37.4 -9.1 37.4 -11.7 44 C-13.2 48.3 -14 52.9 -15 57.4 C-15.8 61.3 -16.7 65.3 -17.7 69.2 C-21.2 83.2 -21.2 83.2 -20.6 90.6 C-18.4 92.7 -14.2 92.2 -11.3 92.4 C-10.5 92.5 -9.8 92.6 -9 92.7 C-4.9 93 -3.1 92.9 0.4 90.6 C3 86.8 3.8 83.6 4.6 79.1 C4.7 78.3 4.9 77.5 5 76.7 C5.4 75.1 5.7 73.5 6 71.8 C6.6 68.7 7.3 65.6 8 62.5 C8.8 58.7 9.5 55 10.2 51.2 C10.3 50.4 10.4 49.7 10.6 48.9 C10.8 47.5 11 46 11.3 44.6 C12 40.3 13.1 36.4 14.7 32.4 C15.5 30.5 16 28.6 16.6 26.6 C17.4 23.6 17.4 23.6 18.4 22.6 C21.2 22.3 24.1 22.2 26.9 22 C27.7 21.9 28.6 21.7 29.4 21.6 C31.7 18.2 32 15.9 32.6 11.9 C32.8 10.8 33 9.6 33.2 8.4 C33.2 7.9 33.2 7.9 33.4 5.6 C31.3 3.4 26.3 4.1 23.3 4 C22.4 4 21.5 3.9 20.6 3.9 C-6.4 2.7 -6.4 2.7 -15.6 4.6 Z " fill="#fff" transform="translate(1088.5625,14.4375)"/><path d="M0 0 C3.1 0.2 3.1 0.2 5.9 -0.4 C11.2 -1.2 16.3 -0.3 21.6 0.3 C22.8 0.4 23.9 0.5 25 0.6 C34.2 1.6 34.2 1.6 37.3 4.6 C42 11.3 40.3 19.2 39.1 26.9 C38.5 30.7 37.8 34.4 37.1 38.2 C37 38.6 37 38.6 36.5 41.1 C35.4 46.7 33.9 51.2 30 55.3 C22.5 60 14.8 60.6 6.1 60.2 C5.9 60.9 5.8 61.7 5.6 62.5 C5.1 65.2 5.1 65.2 4.1 67.8 C2.4 73.2 1.4 78.6 0.7 84.1 C0.5 85.1 0.4 86.1 0.3 87.1 C0.1 88 0 88.9 -0.1 89.8 C-0.9 92.2 -0.9 92.2 -2.8 94 C-7.4 95.7 -11.6 95.5 -16.4 95.4 C-16.9 95.4 -16.9 95.4 -19.3 95.4 C-23.6 95.3 -27.7 95.1 -31.9 94.2 C-33.1 89.3 -32.7 85.7 -31.6 80.8 C-30.7 76.7 -29.8 72.7 -29.4 68.5 C-28.9 65.2 -28.9 65.2 -27.4 62.6 C-25.9 60.2 -25.9 60.2 -25.9 56.9 C-25.9 53.5 -25.6 51.9 -24.5 48.8 C-23 44.6 -22.5 40.8 -22.2 36.3 C-21.9 34.2 -21.9 34.2 -19.9 31.2 C-19.5 29.2 -19.2 27.2 -18.9 25.3 C-18.4 21.2 -17.5 17.9 -15.9 14.2 C-15.6 11.9 -15.6 11.9 -15.4 9.7 C-15.1 6.2 -14.7 3.2 -12.9 0.2 C-8.7 -1.5 -4.4 -0.5 0 0 Z M-8.9 4.2 C-11.2 7.5 -11.7 9.9 -12.5 13.8 C-12.6 14.1 -12.6 14.1 -12.9 15.8 C-13.4 17.9 -13.9 20.1 -14.3 22.2 C-14.6 23.7 -14.9 25.1 -15.2 26.6 C-15.7 28.8 -16.2 31 -16.6 33.1 C-17.5 37.1 -18.4 41.1 -19.3 45.1 C-19.4 45.5 -19.4 45.5 -19.8 47.6 C-20.2 49 -20.5 50.5 -20.9 51.9 C-21.5 54.6 -21.9 56.9 -21.8 59.6 C-21.9 62.7 -23 65.1 -24.1 67.9 C-25.6 72 -26.4 76.3 -27.2 80.6 C-27.4 81.5 -27.6 82.4 -27.7 83.3 C-28.7 88.3 -28.7 88.3 -28.9 90.2 C-26.8 92.3 -22.6 91.7 -19.7 91.8 C-18.9 91.9 -18.2 92 -17.4 92 C-13.1 92.3 -9.7 92.4 -5.9 90.2 C-4.6 87.1 -3.7 84.4 -2.9 81.2 C-2.6 79.9 -2.2 78.6 -1.9 77.3 C-1.5 75.9 -1.2 74.5 -0.8 73.1 C-0.6 72.4 -0.5 71.8 -0.3 71.1 C0.9 66.5 1.6 61.9 2.1 57.2 C2.9 57.1 3.7 57.1 4.6 57.1 C13.1 56.6 21.4 56 27.6 49.6 C28.1 48.8 28.6 48 29.1 47.2 C29.7 46.2 30.4 45.2 31.1 44.2 C32.1 40.7 32.9 37.1 33.7 33.5 C33.9 32.6 34.2 31.6 34.4 30.6 C36 23.8 37 17.3 35.4 10.3 C32.9 6.3 28.5 5.1 24.1 4.2 C13.3 3.2 1.7 2.1 -8.9 4.2 Z " fill="#fff" transform="translate(680.9296875,14.84375)"/><path d="M0 0 C0.8 0 1.7 0 2.6 0.1 C8.1 0.4 12.1 1.9 16 6 C20.8 14.7 21.3 25 18.6 34.4 C18.3 35.4 18.1 36.3 17.8 37.2 C17.1 39.8 16.5 42.3 16 44.9 C15.1 49.7 13.9 54.4 12.7 59.1 C12.1 61.7 11.5 64.4 11.1 67.1 C9.3 76.2 6.3 86.6 -1.1 92.8 C-11.5 99.7 -24.8 100 -37 99 C-42.4 97.4 -46.2 94.1 -50 90 C-54.4 81.5 -51.5 71 -49.6 62.1 C-49.2 59.9 -48.7 57.7 -48.3 55.4 C-48.1 54.4 -47.9 53.3 -47.6 52.2 C-46.4 46.1 -45.2 40.1 -44.5 33.9 C-44 31 -44 31 -42 29 C-42 28.3 -42.1 27.6 -42.1 26.9 C-41.9 22.5 -40 19 -38 15 C-37.7 14.3 -37.4 13.7 -37.1 13 C-34.8 8.5 -32.6 6.9 -28 5 C-27.6 4.5 -27.1 4 -26.7 3.5 C-20.7 -1.9 -7.5 -0.3 0 0 Z M-26.2 9.6 C-40.7 22.2 -43.1 46.8 -46 65 C-46.3 66.5 -46.7 67.9 -47.1 69.4 C-48.5 76 -49 82 -45.5 88.2 C-42 92.5 -37.5 94.5 -32.1 95.3 C-21.9 96.3 -13.5 95.1 -5 89 C5.8 80.2 7.7 65.7 10.1 52.8 C10.8 48.9 11.6 45.2 12.6 41.4 C17.9 21 17.9 21 15 14.8 C11.7 9.3 9 5.9 2.7 4.2 C-7.4 1.8 -17.7 3.5 -26.2 9.6 Z " fill="#fff" transform="translate(834,13)"/><path d="M0 0 C3.6 6.6 1.8 13.1 0 20 C-0.2 20.5 -0.2 20.5 -1 23.2 C-2.2 27.6 -3 32 -3.9 36.5 C-5.1 42.8 -6.5 49 -8.2 55.2 C-9.7 60.4 -10.4 64.7 -10 70 C-9.7 70 -9.7 70 -8.1 69.9 C-7.3 69.9 -6.5 69.8 -5.6 69.8 C-4.8 69.8 -4 69.7 -3.2 69.7 C-2.4 69.8 -1.7 69.9 -1 70 C1.2 73.4 1.2 73.9 0.7 77.8 C0.6 78.6 0.5 79.5 0.3 80.4 C0.2 81.3 0.1 82.1 0 83 C-0.1 83.6 -0.1 83.6 -0.4 86.9 C-1 90.2 -1.7 91.6 -4 94 C-6.4 94.6 -6.4 94.6 -9.1 94.8 C-9.6 94.9 -9.6 94.9 -12.2 95.1 C-13.3 95.1 -14.3 95.2 -15.4 95.2 C-16 95.3 -16 95.3 -18.6 95.5 C-39.4 96.9 -39.4 96.9 -48 93 C-47.1 84.5 -46 76.2 -43.9 67.9 C-42.7 62.7 -41.6 57.4 -40.6 52.2 C-38.8 43.8 -37 35.4 -34.8 27.1 C-34.1 24.4 -33.5 21.7 -33 19 C-32.4 15.9 -31.7 12.8 -31.1 9.8 C-30.9 8.9 -30.7 8.1 -30.5 7.2 C-30.1 5.1 -29.6 3.1 -29 1 C-20.8 -3.1 -8.9 -0.7 0 0 Z M-24 4 C-25.8 6.7 -26.4 8 -27.1 11 C-27.2 11.8 -27.4 12.6 -27.6 13.4 C-27.8 14.2 -27.9 15 -28.1 15.8 C-28.3 16.6 -28.5 17.4 -28.7 18.2 C-29.6 22.6 -30.2 26.5 -30 31 C-28.4 31 -26.7 31 -25 31 C-25 31.7 -25 32.3 -25 33 C-27 33 -29 33 -31 33 C-33.5 39.1 -34.9 45 -36.1 51.5 C-37.2 57.7 -38.4 63.9 -40 70 C-40.6 72.4 -41.1 74.7 -41.6 77.1 C-41.9 78.2 -42.1 79.4 -42.4 80.5 C-43 84.1 -43.1 87.4 -43 91 C-35.3 91.8 -27.7 92.2 -20 92.3 C-19.5 92.3 -19.5 92.3 -16.9 92.4 C-16.4 92.4 -16.4 92.4 -13.9 92.4 C-13.1 92.4 -12.2 92.5 -11.3 92.5 C-9 92 -9 92 -7.2 90.1 C-4.7 85.8 -3.8 80.9 -4.4 75.9 C-4.6 75.3 -4.8 74.7 -5 74 C-8.7 73.3 -12.2 72.9 -16 73 C-14.2 62.1 -11.8 51.4 -9.4 40.6 C-9.2 39.9 -9.1 39.2 -8.9 38.5 C-8.4 36.5 -8 34.4 -7.5 32.4 C-7.3 31.2 -7 30 -6.7 28.8 C-6 26 -6 26 -5 24 C-3.7 17.7 -2.6 11.4 -3 5 C-5.3 2.7 -10.8 3.8 -13.9 3.8 C-14.9 3.7 -15.8 3.7 -16.8 3.7 C-17.2 3.7 -17.2 3.7 -19.5 3.7 C-20.3 3.7 -21.1 3.7 -22 3.6 C-22.6 3.8 -23.3 3.9 -24 4 Z " fill="#fff" transform="translate(385,15)"/><path d="M0 0 C4.4 0.5 8.8 0.2 13.2 0 C16.3 0.3 16.3 0.3 18.2 1.6 C21.8 7.1 18.3 17.3 17.3 23.3 C17.2 23.7 17.2 23.7 16.8 26.1 C16.1 30 15.2 33.6 13.7 37.3 C12.3 40.9 11.8 44.1 11.6 47.9 C11.3 50.4 10.6 52.7 9.9 55.1 C8.6 59.8 7.7 64.6 6.7 69.3 C6.5 70.4 6.3 71.5 6.1 72.6 C4.4 80.5 4.4 80.5 3.8 84.4 C2.3 93.3 2.3 93.3 0.3 95.3 C-4.3 95.6 -8.9 95.6 -13.6 95.7 C-14.9 95.7 -16.2 95.7 -17.5 95.8 C-18.8 95.8 -20 95.8 -21.3 95.8 C-21.9 95.8 -21.9 95.8 -24.8 95.9 C-27.7 95.3 -27.7 95.3 -29.6 92.9 C-30.9 89.7 -30.7 88.6 -29.7 85.3 C-28.5 80.6 -27.5 76.1 -26.8 71.3 C-26.1 66.9 -25 62.9 -23.4 58.6 C-22.3 54.8 -21.8 51 -21.2 47.1 C-20.6 43.7 -19.7 40.5 -18.7 37.3 C-17.6 32.2 -16.6 27 -15.7 21.9 C-15.7 21.4 -15.7 21.4 -15.2 19.2 C-14.9 17.4 -14.6 15.5 -14.3 13.7 C-13.4 9 -12.7 5.1 -9.7 1.3 C-6.2 -0.8 -3.9 -0.8 0 0 Z M-6.7 5.3 C-9.4 11 -10.5 17.6 -11.8 23.8 C-12.8 28.9 -13.9 34 -15.1 39 C-16.4 44.2 -17.5 49.4 -18.6 54.7 C-21.6 68.8 -21.6 68.8 -23 75 C-23.2 75.8 -23.4 76.6 -23.6 77.5 C-23.9 79 -24.3 80.5 -24.7 82 C-25.5 85.5 -25.7 87.8 -24.7 91.3 C-21.2 91.4 -17.8 91.4 -14.3 91.5 C-13.3 91.5 -12.4 91.5 -11.3 91.5 C-10.4 91.6 -9.5 91.6 -8.5 91.6 C-7.6 91.6 -6.7 91.6 -5.9 91.6 C-5.1 91.5 -4.4 91.4 -3.7 91.3 C-1.8 88.5 -1.3 87.3 -0.7 84.1 C-0.6 83.3 -0.4 82.4 -0.2 81.5 C-0 80.6 0.2 79.6 0.4 78.6 C2.7 66.9 5.3 55.2 7.9 43.6 C8 43.2 8 43.2 8.5 41 C9.1 38.5 9.6 36 10.2 33.5 C10.4 32.7 10.6 31.9 10.8 31 C11.6 27.5 12.4 23.9 13.2 20.4 C13.5 19.3 13.8 18.1 14.1 16.9 C14.3 16 14.6 15 14.8 14 C15.3 11 15.5 8.3 15.3 5.3 C12.6 2.6 6.9 3.2 3.2 3.1 C-3.5 3.4 -3.5 3.4 -6.7 5.3 Z " fill="#fff" transform="translate(416.69921875,14.71875)"/><path d="M0 0 C1.3 0.3 2.6 0.7 4 1 C4 4.3 4 7.6 4 11 C5.3 11.3 6.6 11.7 8 12 C8 12.7 8 13.3 8 14 C6 14.3 4 14.7 2 15 C1.9 15.8 1.8 16.5 1.6 17.3 C1.5 18.4 1.3 19.4 1.1 20.5 C1 21 1 21 0.6 23.6 C0.1 26.7 -0.7 29.7 -1.4 32.8 C-2.1 35.2 -2.6 37.7 -3.2 40.2 C-3.4 41.1 -3.6 42 -3.8 42.9 C-4.2 44.8 -4.6 46.6 -5.1 48.5 C-6.1 53.1 -7.1 57.1 -10 61 C-11.3 60.7 -12.6 60.3 -14 60 C-14.2 54.5 -13.5 49.8 -12.2 44.4 C-11.8 42.8 -11.5 41.3 -11.1 39.7 C-10.9 38.9 -10.7 38.1 -10.5 37.3 C-9.8 34 -9 30.6 -8.3 27.2 C-8.1 26.2 -7.9 25.1 -7.6 24 C-5.9 15.4 -5.9 15.4 -7 12 C-6.3 11.7 -5.7 11.3 -5 11 C-4.2 9 -4.2 9 -3.5 6.6 C-2.2 2.2 -2.2 2.2 0 0 Z " fill="#fff" transform="translate(823,32)"/><path d="M0 0 C1.3 0.3 2.6 0.7 4 1 C3.4 7.6 2.6 14 1.3 20.5 C1.1 21.4 1 22.3 0.8 23.2 C0.2 26.1 -0.4 29.1 -1 32 C-1.2 33.1 -1.5 34.3 -1.7 35.5 C-2.5 39 -3.2 42.6 -4 46.1 C-4.2 47.3 -4.5 48.4 -4.7 49.6 C-4.8 50.1 -4.8 50.1 -5.4 52.8 C-5.6 53.7 -5.8 54.6 -6.1 55.6 C-7.2 58.5 -8.3 59.5 -11 61 C-12 60.7 -13 60.3 -14 60 C-13.7 52.2 -12.1 44.9 -10.1 37.3 C-8.9 32.8 -7.9 28.3 -6.9 23.7 C-6.7 22.9 -6.5 22.2 -6.4 21.4 C-5.3 16.3 -4.3 11.3 -3.6 6.2 C-2.9 3.6 -1.7 2 0 0 Z " fill="#fff" transform="translate(1156,32)"/><path d="M0 0 C1.6 0.3 3.3 0.7 5 1 C5.9 4 6 6.1 5.4 9.2 C5.3 9.6 5.3 9.6 4.9 11.7 C4.7 12.5 4.6 13.4 4.4 14.3 C4.2 15.2 4 16.1 3.8 17.1 C3.4 19 3 21 2.6 22.9 C2.2 25 1.8 27.1 1.4 29.1 C0.8 32.2 0.1 35.2 -0.5 38.3 C-0.6 38.8 -0.6 38.8 -1.1 41.2 C-2.3 47 -3.9 51.9 -7 57 C-9.1 57.7 -9.1 57.7 -11 58 C-12.5 54 -11.6 50.4 -10.8 46.4 C-10.6 45.7 -10.5 45 -10.3 44.3 C-9.3 39.3 -8.1 34.5 -6.7 29.7 C-5.7 25.7 -5.1 21.7 -4.5 17.6 C-3.9 14.6 -3 11.9 -2 9 C-1.3 6 -0.6 3 0 0 Z " fill="#fff" transform="translate(890,33)"/><path d="M0 0 C0.7 0 1.3 0 2 0 C1.9 1 1.7 1.9 1.6 2.9 C0.5 10.6 -0.4 18.3 -1 26 C1 26 3 26 5 26 C5 26.7 5 27.3 5 28 C0.2 29 -4.2 29.1 -9 29 C-10 27 -10 27 -9.3 24.4 C-8.9 23.3 -8.6 22.3 -8.2 21.2 C-7.8 20 -7.4 18.8 -6.9 17.6 C-6.5 16.4 -6.1 15.2 -5.6 13.9 C-5.2 12.7 -4.8 11.5 -4.3 10.2 C-1.1 1.1 -1.1 1.1 0 0 Z " fill="#fff" transform="translate(53,46)"/><path d="M0 0 C1.6 0.3 3.3 0.7 5 1 C6.2 5.3 5.8 8.3 4.8 12.6 C4.5 13.8 4.2 14.9 4 16 C2.5 20.4 2.5 20.4 0 22 C-2.2 21.7 -2.2 21.7 -4 21 C-3.6 13.5 -2.8 7 0 0 Z " fill="#fff" transform="translate(691,34)"/><path d="M0 0 C1 0.3 2 0.7 3 1 C2.7 3.7 2.4 6.4 2.1 9.1 C2 9.4 2 9.4 1.8 11.3 C1.6 12.8 1.4 14.3 1.3 15.8 C1 17.9 0.8 19.9 0.6 21.9 C0 25 0 25 -2 27 C-4.6 26.6 -4.6 26.6 -7 26 C-7.2 21.6 -6.7 18.3 -5.2 14.1 C-4.8 13.1 -4.5 12.1 -4.1 11 C-2.8 7.3 -1.4 3.7 0 0 Z " fill="#fff" transform="translate(517,48)"/><path d="M0 0 C0.7 0 1.3 0 2 0 C1.7 3.4 1.4 6.8 1.1 10.1 C1.1 10.6 1.1 10.6 0.9 13 C0.4 17.9 -0.1 22.4 -2 27 C-3.6 27 -5.3 27 -7 27 C-8.2 23.3 -7.6 22.1 -6.3 18.5 C-6 17.4 -5.6 16.3 -5.2 15.2 C-5 14.6 -5 14.6 -4.1 11.8 C-3.7 10.7 -3.3 9.6 -2.9 8.4 C-1.9 5.6 -1 2.8 0 0 Z " fill="#fff" transform="translate(312,48)"/><path d="M0 0 C1.7 0.3 3.3 0.6 5 1 C6.9 6.4 5.1 11.9 3 17 C-0.2 18.8 -0.2 18.8 -3 19 C-4.6 15.7 -3.3 12.4 -2.6 8.9 C-2.5 8.2 -2.3 7.4 -2.2 6.7 C-1.1 1.1 -1.1 1.1 0 0 Z " fill="#fff" transform="translate(754,34)"/><path d="M0 0 C0.8 0.3 0.8 0.3 5 2 C3.7 14 3.7 14 0.4 17.2 C-0.4 17.8 -1.2 18.4 -2 19 C-3 18.7 -4 18.3 -5 18 C-2 2 -2 2 0 0 Z " fill="#fff" transform="translate(586,34)"/><path d="M0 0 C-0.3 1 -0.7 2 -1 3 C-2 2.8 -2 2.8 -7 2 C-7 1.3 -7 0.7 -7 0 C-3.9 -1 -3 -0.9 0 0 Z " fill="#0c0c0c" transform="translate(107,6)"/><path d="M0 0 C2.4 0.8 2.4 0.8 5 2 C5.8 4.1 5.8 4.1 6 6 C5 6 4 6 3 6 C0 2.7 0 2.7 0 0 Z " fill="#0c0c0c" transform="translate(495,2)"/><path d="M0 0 C1.3 0.7 2.6 1.3 4 2 C3.7 3 3.3 4 3 5 C1.7 4.3 0.4 3.7 -1 3 C-0.7 2 -0.3 1 0 0 Z " fill="#0c0c0c" transform="translate(701,96)"/><path d="M0 0 C0 1 0 2 0 3 C-2 3.3 -4 3.7 -6 4 C-2.2 0 -2.2 0 0 0 Z " fill="#0c0c0c" transform="translate(103,119)"/><path d="M0 0 C-0.3 1 -0.7 2 -1 3 C-3 3 -5 3 -7 3 C-7 2.3 -7 1.7 -7 1 C-4.5 -0.2 -2.7 -0.1 0 0 Z " fill="#0c0c0c" transform="translate(50,117)"/><path d="M0 0 C0.3 1 0.7 2 1 3 C-0.7 3.3 -2.3 3.7 -4 4 C-3.7 3 -3.3 2 -3 1 C-2 0.7 -1 0.3 0 0 Z " fill="#0c0c0c" transform="translate(1107,112)"/><path d="M0 0 C1.6 1.3 3.3 2.6 5 4 C3.4 4 1.7 4 0 4 C0 2.7 0 1.4 0 0 Z " fill="#0c0c0c" transform="translate(926,119)"/><path d="M0 0 C1 0.3 2 0.7 3 1 C2.7 2 2.3 3 2 4 C1 3.7 0 3.3 -1 3 C-0.7 2 -0.3 1 0 0 Z " fill="#0c0c0c" transform="translate(78,119)"/><path d="M0 0 C0.7 0.2 0.7 0.2 4 1 C3.7 1.7 3.3 2.3 3 3 C1.7 2.7 0.4 2.3 -1 2 C-0.7 1.3 -0.3 0.7 0 0 Z " fill="#0c0c0c" transform="translate(577,117)"/><path d="M0 0 C0.7 0 1.3 0 2 0 C2 1.7 2 3.3 2 5 C1.7 5.2 1.7 5.2 0 6 C0 4 0 2 0 0 Z " fill="#0c0c0c" transform="translate(1176,0)"/><path d="M0 0 C0.3 1 0.7 2 1 3 C-0.3 3.3 -1.6 3.7 -3 4 C-2.7 3 -2.3 2 -2 1 C-1.3 0.7 -0.7 0.3 0 0 Z " fill="#0c0c0c" transform="translate(255,118)"/><path d="M0 0 C0.3 1.3 0.7 2.6 1 4 C0 4.3 -1 4.7 -2 5 C-1.3 3.3 -0.7 1.7 0 0 Z " fill="#0c0c0c" transform="translate(1079,116)"/><path d="M0 0 C1.3 0.3 2.6 0.7 4 1 C4 2 4 3 4 4 C2.7 2.7 1.4 1.4 0 0 Z " fill="#0c0c0c" transform="translate(975,115)"/><path d="M0 0 C0.7 0.3 1.3 0.7 2 1 C1.3 2.3 0.7 3.6 0 5 C-0.6 3.1 -0.6 3.1 -1 1 C-0.7 0.7 -0.3 0.3 0 0 Z " fill="#0c0c0c" transform="translate(340,2)"/><path d="M0 0 C0.7 0.7 1.3 1.3 2 2 C1.3 2.3 1.3 2.3 -2 4 C-2 3 -2 2 -2 1 C-1.3 0.7 -0.7 0.3 0 0 Z " fill="#0c0c0c" transform="translate(984,1)"/><path d="M0 0 C1 0.3 2 0.7 3 1 C2.7 1.7 2.3 2.3 2 3 C1 3 0 3 -1 3 C-0.7 2 -0.3 1 0 0 Z " fill="#0c0c0c" transform="translate(282,120)"/><path d="M0 0 C0.7 0.3 0.7 0.3 4 2 C4 2.7 4 3.3 4 4 C2.7 3.3 1.4 2.7 0 2 C0 1.3 0 0.7 0 0 Z " fill="#0c0c0c" transform="translate(144,112)"/><path d="M0 0 C0.7 0.3 0.7 0.3 4 2 C3.3 2.7 2.7 3.3 2 4 C1.3 2.7 0.7 1.4 0 0 Z " fill="#0c0c0c" transform="translate(1048,112)"/><path d="M0 0 C1 0.3 2 0.7 3 1 C2.7 1.7 2.3 2.3 2 3 C1 3 0 3 -1 3 C-0.7 2 -0.3 1 0 0 Z " fill="#0c0c0c" transform="translate(853,7)"/><path d="M0 0 C0.7 0.7 1.3 1.3 2 2 C1 2.7 0 3.3 -1 4 C-1 1 -1 1 0 0 Z " fill="#0c0c0c" transform="translate(447,120)"/><path d="M0 0 C0.7 0.7 1.3 1.3 2 2 C1.7 2.7 1.3 3.3 1 4 C0.3 4 -0.3 4 -1 4 C-0.7 2.7 -0.3 1.4 0 0 Z " fill="#0c0c0c" transform="translate(773,119)"/><path d="M0 0 C1 0 2 0 3 0 C3 0.7 3 1.3 3 2 C2 2.3 1 2.7 0 3 C0 2 0 1 0 0 Z " fill="#0c0c0c" transform="translate(784,118)"/><path d="M0 0 C0.7 0.7 1.3 1.3 2 2 C1 2.7 0 3.3 -1 4 C-1 1 -1 1 0 0 Z " fill="#0c0c0c" transform="translate(1057,116)"/><path d="M0 0 C1 0 2 0 3 0 C3 0.7 3 1.3 3 2 C2 2.3 1 2.7 0 3 C0 2 0 1 0 0 Z " fill="#0c0c0c" transform="translate(298,117)"/><path d="M0 0 C0.7 0 1.3 0 2 0 C1.7 1 1.3 2 1 3 C0 2.7 -1 2.3 -2 2 C-1.3 1.3 -0.7 0.7 0 0 Z " fill="#0c0c0c" transform="translate(142,108)"/><path d="M0 0 C0.7 0.7 1.3 1.3 2 2 C1 2.7 0 3.3 -1 4 C-1 1 -1 1 0 0 Z " fill="#0c0c0c" transform="translate(1182,100)"/><path d="M0 0 C0.7 0 1.3 0 2 0 C2.3 1 2.7 2 3 3 C2 3 1 3 0 3 C0 2 0 1 0 0 Z " fill="#0c0c0c" transform="translate(931,4)"/><path d="M0 0 C1 0 2 0 3 0 C3 0.7 3 1.3 3 2 C2 2.3 1 2.7 0 3 C0 2 0 1 0 0 Z " fill="#0c0c0c" transform="translate(1077,3)"/><path d="M0 0 C0.7 0.3 1.3 0.7 2 1 C1.7 2 1.3 3 1 4 C0.3 3.7 -0.3 3.3 -1 3 C-0.7 2 -0.3 1 0 0 Z " fill="#0c0c0c" transform="translate(359,1)"/><path d="M0 0 C2.1 0.4 2.1 0.4 4 1 C2 1.3 0 1.7 -2 2 C-1.3 1.3 -0.7 0.7 0 0 Z " fill="#0c0c0c" transform="translate(124,120)"/><path d="M0 0 C1 0.3 2 0.7 3 1 C2 1.7 1 2.3 0 3 C0 2 0 1 0 0 Z " fill="#0c0c0c" transform="translate(79,114)"/><path d="M0 0 C0.8 0.2 0.8 0.2 5 1 C4.3 1.3 4.3 1.3 1 3 C0.7 2 0.3 1 0 0 Z " fill="#0c0c0c" transform="translate(616,92)"/><path d="M0 0 C0.7 0 1.3 0 2 0 C2 1 2 2 2 3 C1 2.7 0 2.3 -1 2 C-0.7 1.3 -0.3 0.7 0 0 Z " fill="#0c0c0c" transform="translate(1002,5)"/><path d="M0 0 C0.7 0 1.3 0 2 0 C1.7 1 1.3 2 1 3 C0.3 3 -0.3 3 -1 3 C-0.7 2 -0.3 1 0 0 Z " fill="#0c0c0c" transform="translate(1054,3)"/><path d="M0 0 C1 0 2 0 3 0 C2.7 1 2.3 2 2 3 C1.3 2.7 0.7 2.3 0 2 C0 1.3 0 0.7 0 0 Z " fill="#0c0c0c" transform="translate(414,3)"/><path d="M0 0 C1 0 2 0 3 0 C2.7 1 2.3 2 2 3 C1.3 2.7 0.7 2.3 0 2 C0 1.3 0 0.7 0 0 Z " fill="#0c0c0c" transform="translate(873,2)"/><path d="M0 0 C0.7 0.3 0.7 0.3 4 2 C3 2.3 2 2.7 1 3 C0.7 2 0.3 1 0 0 Z " fill="#0c0c0c" transform="translate(1021,1)"/><path d="M0 0 C0.7 0 1.3 0 2 0 C1.7 1.3 1.3 2.6 1 4 C0.3 3.7 -0.3 3.3 -1 3 C-0.7 2 -0.3 1 0 0 Z " fill="#0c0c0c" transform="translate(144,0)"/><path d="M0 0 C1 0.3 2 0.7 3 1 C2.3 1.7 1.7 2.3 1 3 C0.7 2 0.3 1 0 0 Z " fill="#0c0c0c" transform="translate(1003,121)"/><path d="M0 0 C0.7 0.3 1.3 0.7 2 1 C2 1.7 2 2.3 2 3 C1 2.7 0 2.3 -1 2 C-0.7 1.3 -0.3 0.7 0 0 Z " fill="#0c0c0c" transform="translate(326,118)"/><path d="M0 0 C1 0.3 2 0.7 3 1 C1.7 1.3 0.4 1.7 -1 2 C-0.7 1.3 -0.3 0.7 0 0 Z " fill="#0c0c0c" transform="translate(703,91)"/><path d="M0 0 C1 1 2 2 3 3 C2.7 3.2 2.7 3.2 1 4 C0.7 2.7 0.3 1.4 0 0 Z " fill="#0c0c0c" transform="translate(625,12)"/><path d="M0 0 C0.7 0.3 1.3 0.7 2 1 C1.7 1.7 1.3 2.3 1 3 C0.3 3 -0.3 3 -1 3 C-0.7 2 -0.3 1 0 0 Z " fill="#0c0c0c" transform="translate(33,10)"/><path d="M0 0 C0.7 0.3 1.3 0.7 2 1 C2 1.7 2 2.3 2 3 C1 2.7 0 2.3 -1 2 C-0.7 1.3 -0.3 0.7 0 0 Z " fill="#0c0c0c" transform="translate(557,4)"/><path d="M0 0 C0.7 0.3 1.3 0.7 2 1 C2 1.7 2 2.3 2 3 C1 2.7 0 2.3 -1 2 C-0.7 1.3 -0.3 0.7 0 0 Z " fill="#0c0c0c" transform="translate(1026,2)"/><path d="M0 0 C0.7 0.7 1.3 1.3 2 2 C1 2.3 0 2.7 -1 3 C-0.7 2 -0.3 1 0 0 Z " fill="#0c0c0c" transform="translate(250,2)"/><path d="M0 0 C0.7 0.7 1.3 1.3 2 2 C1 2.3 0 2.7 -1 3 C-0.7 2 -0.3 1 0 0 Z " fill="#0c0c0c" transform="translate(109,1)"/><path d="M0 0 C0.5 0.3 0.5 0.3 3 2 C2 2.3 1 2.7 0 3 C0 2 0 1 0 0 Z " fill="#0c0c0c" transform="translate(837,118)"/><path d="M0 0 C0.7 0 1.3 0 2 0 C1.7 1 1.3 2 1 3 C0.7 2 0.3 1 0 0 Z " fill="#0c0c0c" transform="translate(0,82)"/><path d="M0 0 C0.7 0 1.3 0 2 0 C1.7 1 1.3 2 1 3 C0.7 2 0.3 1 0 0 Z " fill="#0c0c0c" transform="translate(1190,81)"/><path d="M0 0 C1 0.3 2 0.7 3 1 C2 1.3 1 1.7 0 2 C0 1.3 0 0.7 0 0 Z " fill="#0c0c0c" transform="translate(1192,79)"/><path d="M0 0 C1 0.3 2 0.7 3 1 C2 1.3 1 1.7 0 2 C0 1.3 0 0.7 0 0 Z " fill="#0c0c0c" transform="translate(1193,53)"/><path d="M0 0 C0.3 1 0.7 2 1 3 C0.3 3 -0.3 3 -1 3 C-0.7 2 -0.3 1 0 0 Z " fill="#0c0c0c" transform="translate(625,52)"/><path d="M0 0 C0.7 0.7 1.3 1.3 2 2 C1 2 0 2 -1 2 C-0.7 1.3 -0.3 0.7 0 0 Z " fill="#0c0c0c" transform="translate(1187,1)"/><path d="M0 0 C0.7 0.7 1.3 1.3 2 2 C1 2 0 2 -1 2 C-0.7 1.3 -0.3 0.7 0 0 Z " fill="#0c0c0c" transform="translate(852,0)"/><path d="M0 0 C0.7 0.7 1.3 1.3 2 2 C1.7 2.2 1.7 2.2 0 3 C0 2 0 1 0 0 Z " fill="#0c0c0c" transform="translate(1164,122)"/><path d="M0 0 C0.7 0.7 1.3 1.3 2 2 C1.7 2.2 1.7 2.2 0 3 C0 2 0 1 0 0 Z " fill="#0c0c0c" transform="translate(1123,122)"/><path d="M0 0 C0.7 0 1.3 0 2 0 C2 0.7 2 1.3 2 2 C1.3 2 0.7 2 0 2 C0 1.3 0 0.7 0 0 Z " fill="#0c0c0c" transform="translate(828,123)"/><path d="M0 0 C0.7 0.7 1.3 1.3 2 2 C1.7 2.2 1.7 2.2 0 3 C0 2 0 1 0 0 Z " fill="#0c0c0c" transform="translate(419,119)"/><path d="M0 0 C0 3 0 3 0 3 Z " fill="#0c0c0c" transform="translate(912,118)"/><path d="M0 0 C0.7 0.7 1.3 1.3 2 2 C1.7 2.2 1.7 2.2 0 3 C0 2 0 1 0 0 Z " fill="#0c0c0c" transform="translate(706,118)"/><path d="M0 0 C0.7 0.7 1.3 1.3 2 2 C1.7 2.2 1.7 2.2 0 3 C0 2 0 1 0 0 Z " fill="#0c0c0c" transform="translate(536,118)"/><path d="M0 0 C0.7 0 1.3 0 2 0 C2 0.7 2 1.3 2 2 C1.3 2 0.7 2 0 2 C0 1.3 0 0.7 0 0 Z " fill="#0c0c0c" transform="translate(1050,118)"/><path d="M0 0 C0 3 0 3 0 3 Z " fill="#0c0c0c" transform="translate(181,117)"/><path d="M0 0 C0 3 0 3 0 3 Z " fill="#0c0c0c" transform="translate(140,116)"/><path d="M0 0 C0.7 0.7 1.3 1.3 2 2 C1 1.7 0 1.3 -1 1 C-0.7 0.7 -0.3 0.3 0 0 Z " fill="#0c0c0c" transform="translate(1179,109)"/><path d="M0 0 C0 3 0 3 0 3 Z " fill="#0c0c0c" transform="translate(1186,106)"/><path d="M0 0 C1 0.3 2 0.7 3 1 C2 1 1 1 0 1 C0 0.7 0 0.3 0 0 Z " fill="#0c0c0c" transform="translate(4,66)"/><path d="M0 0 C0.7 0 1.3 0 2 0 C2 0.7 2 1.3 2 2 C1.3 2 0.7 2 0 2 C0 1.3 0 0.7 0 0 Z " fill="#0c0c0c" transform="translate(620,15)"/><path d="M0 0 C0.7 0 1.3 0 2 0 C2 0.7 2 1.3 2 2 C1.3 2 0.7 2 0 2 C0 1.3 0 0.7 0 0 Z " fill="#0c0c0c" transform="translate(772,6)"/><path d="M0 0 C0 3 0 3 0 3 Z " fill="#0c0c0c" transform="translate(477,5)"/><path d="M0 0 C0 3 0 3 0 3 Z " fill="#0c0c0c" transform="translate(76,5)"/><path d="M0 0 C0 3 0 3 0 3 Z " fill="#0c0c0c" transform="translate(611,4)"/><path d="M0 0 C1 0.3 2 0.7 3 1 C2 1 1 1 0 1 C0 0.7 0 0.3 0 0 Z " fill="#0c0c0c" transform="translate(708,2)"/><path d="M0 0 C1 0.3 2 0.7 3 1 C2 1 1 1 0 1 C0 0.7 0 0.3 0 0 Z " fill="#0c0c0c" transform="translate(1046,0)"/><path d="M0 0 C0.7 0.7 1.3 1.3 2 2 C1.3 2 0.7 2 0 2 C0 1.3 0 0.7 0 0 Z " fill="#0c0c0c" transform="translate(510,121)"/><path d="M0 0 C0.7 0.7 1.3 1.3 2 2 C1.3 2 0.7 2 0 2 C0 1.3 0 0.7 0 0 Z " fill="#0c0c0c" transform="translate(408,121)"/><path d="M0 0 C0.3 0.7 0.7 1.3 1 2 C0.3 1.7 -0.3 1.3 -1 1 C-0.7 0.7 -0.3 0.3 0 0 Z " fill="#0c0c0c" transform="translate(1090,119)"/><path d="M0 0 C0.3 0.7 0.7 1.3 1 2 C0.3 1.7 -0.3 1.3 -1 1 C-0.7 0.7 -0.3 0.3 0 0 Z " fill="#0c0c0c" transform="translate(868,118)"/><path d="M0 0 C0.3 0.7 0.7 1.3 1 2 C0.3 1.7 -0.3 1.3 -1 1 C-0.7 0.7 -0.3 0.3 0 0 Z " fill="#0c0c0c" transform="translate(724,118)"/><path d="M0 0 C0.7 0 1.3 0 2 0 C1.7 0.7 1.3 1.3 1 2 C0.7 1.3 0.3 0.7 0 0 Z " fill="#0c0c0c" transform="translate(828,117)"/><path d="M0 0 C0.7 0 1.3 0 2 0 C1.7 0.7 1.3 1.3 1 2 C0.7 1.3 0.3 0.7 0 0 Z " fill="#0c0c0c" transform="translate(148,116)"/><path d="M0 0 C0.7 0 1.3 0 2 0 C1.7 0.7 1.3 1.3 1 2 C0.7 1.3 0.3 0.7 0 0 Z " fill="#0c0c0c" transform="translate(126,116)"/><path d="M0 0 C0.3 0.7 0.7 1.3 1 2 C0.3 1.7 -0.3 1.3 -1 1 C-0.7 0.7 -0.3 0.3 0 0 Z " fill="#0c0c0c" transform="translate(3,80)"/><path d="M0 0 C0.7 0.7 1.3 1.3 2 2 C1.3 2 0.7 2 0 2 C0 1.3 0 0.7 0 0 Z " fill="#0c0c0c" transform="translate(3,70)"/><path d="M0 0 C0.7 0.7 1.3 1.3 2 2 C1.3 2 0.7 2 0 2 C0 1.3 0 0.7 0 0 Z " fill="#0c0c0c" transform="translate(615,67)"/><path d="M0 0 C0.7 0 1.3 0 2 0 C1.7 0.7 1.3 1.3 1 2 C0.7 1.3 0.3 0.7 0 0 Z " fill="#0c0c0c" transform="translate(623,65)"/><path d="M0 0 C0.3 0.7 0.7 1.3 1 2 C0.3 1.7 -0.3 1.3 -1 1 C-0.7 0.7 -0.3 0.3 0 0 Z " fill="#0c0c0c" transform="translate(1197,34)"/><path d="M0 0 C0.7 0.7 1.3 1.3 2 2 C1.3 2 0.7 2 0 2 C0 1.3 0 0.7 0 0 Z " fill="#0c0c0c" transform="translate(745,7)"/><path d="M0 0 C0.3 0.7 0.7 1.3 1 2 C0.3 1.7 -0.3 1.3 -1 1 C-0.7 0.7 -0.3 0.3 0 0 Z " fill="#0c0c0c" transform="translate(881,6)"/><path d="M0 0 C0.3 0.7 0.7 1.3 1 2 C0.3 1.7 -0.3 1.3 -1 1 C-0.7 0.7 -0.3 0.3 0 0 Z " fill="#0c0c0c" transform="translate(1142,5)"/><path d="M0 0 C0.3 0.2 0.3 0.2 2 1 C1.7 1.2 1.7 1.2 0 2 C0 1.3 0 0.7 0 0 Z " fill="#0c0c0c" transform="translate(525,3)"/><path d="M0 0 C0.7 0 1.3 0 2 0 C1.7 0.7 1.3 1.3 1 2 C0.7 1.3 0.3 0.7 0 0 Z " fill="#0c0c0c" transform="translate(98,3)"/><path d="M0 0 C2 1 2 1 2 1 Z " fill="#0c0c0c" transform="translate(227,124)"/><path d="" fill="#0c0c0c" transform="translate(0,0)"/><path d="" fill="#0c0c0c" transform="translate(0,0)"/><path d="M0 0 C2 1 2 1 2 1 Z " fill="#0c0c0c" transform="translate(1041,122)"/><path d="M0 0 C2 1 2 1 2 1 Z " fill="#0c0c0c" transform="translate(1013,122)"/><path d="M0 0 C2 1 2 1 2 1 Z " fill="#0c0c0c" transform="translate(988,122)"/><path d="" fill="#0c0c0c" transform="translate(0,0)"/><path d="M0 0 C2 1 2 1 2 1 Z " fill="#0c0c0c" transform="translate(918,121)"/><path d="M0 0 C2 1 2 1 2 1 Z " fill="#0c0c0c" transform="translate(712,121)"/><path d="M0 0 C2 1 2 1 2 1 Z " fill="#0c0c0c" transform="translate(322,121)"/><path d="M0 0 C2 1 2 1 2 1 Z " fill="#0c0c0c" transform="translate(301,121)"/><path d="" fill="#0c0c0c" transform="translate(0,0)"/><path d="" fill="#0c0c0c" transform="translate(0,0)"/><path d="" fill="#0c0c0c" transform="translate(0,0)"/><path d="M0 0 C2 1 2 1 2 1 Z " fill="#0c0c0c" transform="translate(734,120)"/><path d="M0 0 C2 1 2 1 2 1 Z " fill="#0c0c0c" transform="translate(730,120)"/><path d="M0 0 C2 1 2 1 2 1 Z " fill="#0c0c0c" transform="translate(595,120)"/><path d="M0 0 C2 1 2 1 2 1 Z " fill="#0c0c0c" transform="translate(480,120)"/><path d="" fill="#0c0c0c" transform="translate(0,0)"/><path d="" fill="#0c0c0c" transform="translate(0,0)"/><path d="" fill="#0c0c0c" transform="translate(0,0)"/><path d="" fill="#0c0c0c" transform="translate(0,0)"/><path d="M0 0 C2 1 2 1 2 1 Z " fill="#0c0c0c" transform="translate(1021,118)"/><path d="M0 0 C2 1 2 1 2 1 Z " fill="#0c0c0c" transform="translate(644,118)"/><path d="" fill="#0c0c0c" transform="translate(0,0)"/><path d="" fill="#0c0c0c" transform="translate(0,0)"/><path d="" fill="#0c0c0c" transform="translate(0,0)"/><path d="M0 0 C2 1 2 1 2 1 Z " fill="#0c0c0c" transform="translate(376,117)"/><path d="" fill="#0c0c0c" transform="translate(0,0)"/><path d="M0 0 C2 1 2 1 2 1 Z " fill="#0c0c0c" transform="translate(1039,116)"/><path d="M0 0 C2 1 2 1 2 1 Z " fill="#0c0c0c" transform="translate(638,116)"/><path d="" fill="#0c0c0c" transform="translate(0,0)"/><path d="" fill="#0c0c0c" transform="translate(0,0)"/><path d="M0 0 C2 1 2 1 2 1 Z " fill="#0c0c0c" transform="translate(614,97)"/><path d="" fill="#0c0c0c" transform="translate(0,0)"/><path d="M0 0 C2 1 2 1 2 1 Z " fill="#0c0c0c" transform="translate(617,82)"/><path d="" fill="#0c0c0c" transform="translate(0,0)"/><path d="" fill="#0c0c0c" transform="translate(0,0)"/><path d="M0 0 C2 1 2 1 2 1 Z " fill="#0c0c0c" transform="translate(11,54)"/><path d="" fill="#0c0c0c" transform="translate(0,0)"/><path d="" fill="#0c0c0c" transform="translate(0,0)"/><path d="" fill="#0c0c0c" transform="translate(0,0)"/><path d="M0 0 C2 1 2 1 2 1 Z " fill="#0c0c0c" transform="translate(25,17)"/><path d="" fill="#0c0c0c" transform="translate(0,0)"/><path d="M0 0 C2 1 2 1 2 1 Z " fill="#0c0c0c" transform="translate(917,7)"/><path d="" fill="#0c0c0c" transform="translate(0,0)"/><path d="" fill="#0c0c0c" transform="translate(0,0)"/><path d="" fill="#0c0c0c" transform="translate(0,0)"/><path d="M0 0 C2 1 2 1 2 1 Z " fill="#0c0c0c" transform="translate(246,7)"/><path d="M0 0 C2 1 2 1 2 1 Z " fill="#0c0c0c" transform="translate(600,6)"/><path d="" fill="#0c0c0c" transform="translate(0,0)"/><path d="M0 0 C2 1 2 1 2 1 Z " fill="#0c0c0c" transform="translate(278,6)"/><path d="M0 0 C2 1 2 1 2 1 Z " fill="#0c0c0c" transform="translate(254,6)"/><path d="M0 0 C2 1 2 1 2 1 Z " fill="#0c0c0c" transform="translate(226,6)"/><path d="M0 0 C2 1 2 1 2 1 Z " fill="#0c0c0c" transform="translate(1172,5)"/><path d="" fill="#0c0c0c" transform="translate(0,0)"/><path d="" fill="#0c0c0c" transform="translate(0,0)"/><path d="" fill="#0c0c0c" transform="translate(0,0)"/><path d="M0 0 C2 1 2 1 2 1 Z " fill="#0c0c0c" transform="translate(699,5)"/><path d="M0 0 C2 1 2 1 2 1 Z " fill="#0c0c0c" transform="translate(260,5)"/><path d="M0 0 C2 1 2 1 2 1 Z " fill="#0c0c0c" transform="translate(152,5)"/><path d="M0 0 C2 1 2 1 2 1 Z " fill="#0c0c0c" transform="translate(846,4)"/><path d="M0 0 C2 1 2 1 2 1 Z " fill="#0c0c0c" transform="translate(263,3)"/><path d="M0 0 C2 1 2 1 2 1 Z " fill="#0c0c0c" transform="translate(857,2)"/><path d="M0 0 C2 1 2 1 2 1 Z " fill="#0c0c0c" transform="translate(775,2)"/><path d="M0 0 C2 1 2 1 2 1 Z " fill="#0c0c0c" transform="translate(455,2)"/><path d="M0 0 C2 1 2 1 2 1 Z " fill="#0c0c0c" transform="translate(221,2)"/><path d="" fill="#0c0c0c" transform="translate(0,0)"/></svg>
